<?xml version="1.0" encoding="UTF-8"?>
<svg viewBox="0 0 500 500" xmlns="http://www.w3.org/2000/svg">
<path d="m124.97 287.63 0.62 0.02 1.12 0.08 0.33 0.06 0.49 0.16-0.06 0.11-0.36 0.25-0.43 0.11-1.02 0.22-0.69 0.08-1.51 0.16-0.88 0.05-1.83 0.07h-0.98l-2.72-0.03-1.57-0.04-0.6-0.04-1.09-0.07-0.31-0.04-0.45-0.09 0.05-0.05 0.94-0.32 1.1-0.19 0.72-0.08 3.25-0.29 1.77-0.07 1.76-0.06 0.8-0.01m253.01-0.08 1.71 0.03 0.9 0.04 3.63 0.21 1.45 0.18 1.35 0.19 0.49 0.11 0.82 0.22 0.14 0.12-0.11 0.1-0.34 0.04-0.85 0.08-0.66 0.03-1.45 0.06-0.9 0.02-1.89 0.03h-1.05l-3.09-0.07-1.75-0.12-0.68-0.09-1.21-0.2-0.37-0.12-0.57-0.26v-0.15l0.6-0.27 0.92-0.12 0.65-0.03 1.43-0.04m-63.65-48.52 0.27 0.35 0.32 0.56 0.22 0.43 0.5 0.96 0.3 0.61 0.64 1.3 0.37 0.77 0.77 1.6 0.42 0.9 0.88 1.86 0.46 1.01 1.95 4.24 1.05 2.32 7.59 16.9-2.42 3.09-2.41 3.09-13.18 0.13-13.18 0.12 9 1.32 4.18 0.54 3.12 0.34 4.8 0.42 1.5 0.1 2.88 0.18 1.19 0.05 8.68 0.3 3.12 6.5h-70.67l-7.27-15.25-2.86-6.02-1.71-3.62-0.7-1.5-0.68-1.43-0.28-0.62-0.55-1.16-0.21-0.46-0.52-1.12-0.21-0.48-0.03-0.08 0.37-0.73 0.77-0.66 0.58-0.38 1.26-0.79 0.75-0.42 1.57-0.84 0.84-0.4 1.68-0.79 0.82-0.35 1.6-0.64 0.71-0.24 1.32-0.41 0.5-0.09 0.86-0.08 0.18 0.12 0.85 0.91 0.01 0.67-0.26 0.36-0.71 0.75-0.62 0.4-1.44 0.82-0.98 0.45-4.07 1.82 6.32 2.47 2.05 0.82 1.13 0.48 0.47 0.24 1.66 0.94 0.62 0.61 1.17 1.36 0.6 1.04 0.61 1.1 0.35 0.68 1.15 2.3 1.42 2.82 0.88 1.7 0.39 0.71 0.72 1.31 0.27 0.44 0.46 0.74 0.1 0.1 0.45-0.09 0.42-0.42 0.25-0.36 0.53-0.8 0.29-0.52 0.57-1.12 0.28-0.64 0.77-1.65 0.46-0.89 0.23-0.35 0.9-1.15 0.53-0.24 1.16-0.27 0.8 0.14 0.84 0.18 0.5 0.15 1.06 0.33 0.62 0.22 1.78 0.48 1.09 0.12 0.57-0.04 1.17-0.16 0.68-0.19 1.44-0.44 0.88-0.34 3.32-1.7 0.93-0.74 0.43-0.48 0.87-1.02 0.43-0.65 0.87-1.4 0.47-0.87 0.94-1.88 0.53-1.15 1.09-2.45 0.62-1.48 1.29-3.13 0.75-1.85 1.74-4.17 1.05-2.45 0.45-0.97 0.82-1.76 0.29-0.54 0.26-0.49 0.09-0.14 0.17-0.22m-125.77 3.25 0.26 0.42 0.17 0.32 0.38 0.72 0.72 1.44 0.27 0.58 1.19 2.52 0.69 1.52 1.42 3.19 0.76 1.75 1.55 3.54 0.92 2.04 0.41 0.87 0.8 1.65 0.37 0.7 0.7 1.33 0.33 0.55 1.27 1.96 0.61 0.69 1.24 1.2 0.69 0.47 3.1 1.57 2.11 0.55 1.12 0.03 2.27-0.1 1.21-0.29 2.51-0.76 1.36-0.62 4.09-1.85 10.32 20.75h-31.5-5.82l-3.51-0.01h-1.58l-3.06-0.01-1.36-0.01-2.62-0.03-1.16-0.01-2.22-0.04-0.97-0.03-1.84-0.06-0.79-0.04-1.5-0.08-0.62-0.05-1.18-0.12-0.48-0.06-0.89-0.15-0.34-0.08-0.63-0.18-0.22-0.1-0.67-0.46-0.05-0.3 0.06-0.64 0.23-0.41 0.58-0.86 0.4-0.53 1.1-0.8 1.19-0.44 0.88-0.19 1.96-0.34 1.33-0.15 1.4-0.14 0.79-0.07 1.66-0.13 0.94-0.07 4.26-0.34 2.43-0.25 1-0.12 1.86-0.26 0.69-0.13 1.24-0.24 0.36-0.12 0.56-0.23 0.01-0.1-0.15-0.19-0.36-0.08-0.92-0.15-0.76-0.05-1.72-0.08-1.18-0.01-2.15-0.03-1.19-0.04-0.49-0.04-1.72-0.21-0.63-0.24-1.15-0.6-0.55-0.52-1.12-1.21-0.75-0.9-2.17-2.87-0.5-0.78-0.16-0.28-0.24-0.5v-0.12l0.14-0.57 0.22-0.66 0.17-0.46 0.37-0.99 0.24-0.6 0.5-1.26 0.29-0.71 1.26-3.06 0.73-1.73 1.52-3.55 0.78-1.81 1.58-3.61 0.75-1.69 1.46-3.24 0.62-1.34 0.6-1.28 0.26-0.54 0.49-1.01 0.2-0.39 0.36-0.69 0.13-0.21 0.21-0.32h0.04m118.25-5.75-0.07 0.41-0.09 0.32-0.19 0.69-0.15 0.45-0.31 0.95-0.19 0.56-0.87 2.46-0.56 1.48-1.2 3.1-0.68 1.7-1.35 3.3-0.81 1.91-0.37 0.82-0.7 1.57-0.32 0.66-0.63 1.24-0.28 0.52-1.08 1.79-0.49 0.56-0.96 0.91-0.48 0.22-1.26 0.58-0.4 0.17-0.69 0.26-0.24 0.01-0.45-0.05-0.26-0.14-0.55-0.34-0.44-0.27-0.54-0.5-0.07-0.33 0.11-0.19 0.34-0.38 0.33-0.22 0.77-0.48 0.56-0.29 1.65-1.28 1.16-1.34 0.65-0.99 0.67-1.04 0.36-0.61 0.74-1.28 0.41-0.74 0.82-1.56 0.46-0.88 0.93-1.84 0.51-1.04 2.18-4.31 1.33-2.52 0.56-1.01 1.04-1.82 0.36-0.56 0.33-0.51 0.12-0.14 0.2-0.23h0.05m-50.83 22.37-0.1 0.78 0.4 0.6 0.4 0.25 0.87 0.45 0.32 0.06 0.55 0.02 0.13-0.13 0.15-0.34-0.11-0.27-0.33-0.61-0.38-0.38-1.04-0.61-0.66-0.02m-19.79-175.16 3.28 0.05 1.93 0.08 0.84 0.06 1.61 0.14 0.68 0.1 1.3 0.2 0.54 0.13 1 0.28 0.39 0.16 0.71 0.35 0.26 0.2 0.44 0.42 0.13 0.24 0.18 0.51v0.28l-0.21 1.05-0.5 0.42-0.58 0.09-0.65 0.07h-0.43-0.94l-0.61-0.02-1.29-0.07-0.8-0.05-1.71-0.11-1.03-0.08-2.57-0.17-1.47-0.08-0.63-0.01-2.28-0.02-0.87 0.09-1.6 0.26-0.7 0.24-1.38 0.56-0.75 0.42-3.1 2.3-1.66 1.92-0.65 1.2-1.17 2.58-0.44 1.58-0.77 3.35-0.25 2.02-0.22 1.76-0.2 1.5-0.11 0.9-0.25 1.88-0.13 1.06-0.29 2.19-0.15 1.19-0.64 4.96-0.35 2.66-0.7 5.41-0.35 2.67-0.95 7.58-0.28 2.29-0.11 1.05-0.23 2.03-0.1 0.9-0.17 1.72-0.07 0.73-0.12 1.35-0.04 0.52-0.06 0.93-0.01 0.29 0.01 0.45 0.03 0.04 0.5 0.04 0.6-0.1 0.41-0.11 1.88-0.57 1.12-0.44 3.56-1.15 2.21-0.39 1.06-0.01 2.11 0.1 1.07 0.23 2.15 0.59 1.15 0.47 3.01 1.67 1.69 1.46 0.77 1 0.75 1.06 0.38 0.63 0.74 1.3 0.38 0.76 0.77 1.59 0.4 0.91 0.82 1.92 0.44 1.09 1.18 2.77 0.74 1.63 0.32 0.64 0.62 1.17 0.23 0.37 0.41 0.56h0.1l0.22-0.21 0.23-0.34 0.15-0.26 0.68-1.27 0.43-0.93 0.94-2.03 0.53-1.23 1.09-2.57 0.57-1.41 2.37-5.79 1.4-3.31 0.62-1.4 1.21-2.64 0.55-1.11 1.06-2.07 0.5-0.86 0.97-1.6 0.47-0.65 0.94-1.22 0.48-0.49 1.93-1.71 1.12-0.62 2.37-1.17 1.56-0.57 0.8-0.18 1.61-0.28 0.86-0.04 1.77 0.01 0.98 0.11 2.01 0.32 1.13 0.27 2.36 0.63 1.34 0.43 2.79 0.96 1.59 0.61 3.32 1.29 1.89 0.78 5.27 2.16 3.24 1.31 1.36 0.55 1.32 0.52 0.57 0.23 1.09 0.43 0.44 0.17 0.82 0.32 0.3 0.11 0.51 0.19 0.12 0.04 0.66 0.09 0.38-0.11 0.18-0.2 0.33-0.5 0.17-0.44 0.32-1.02 0.17-0.76 0.35-1.69 0.19-1.15 0.39-2.51 0.23-1.6 0.23-1.67 0.13-0.93 0.26-1.94 0.14-1.07 0.29-2.21 0.16-1.21 0.32-2.51 0.18-1.37 0.6-5.6 0.23-3.3 0.02-1.44-0.03-2.77-0.1-1.2-0.29-2.28-0.24-0.98-0.56-1.85-0.38-0.78-0.85-1.48-0.53-0.61-1.15-1.15-0.69-0.47-1.45-0.88-0.85-0.35-1.11-0.33-1.16-0.27-0.76-0.15-1.65-0.32-0.98-0.17-2.06-0.36-1.17-0.19-2.41-0.38-1.31-0.2-2.69-0.41-1.43-0.2-5.89-0.82-3.1-0.39-6.5-0.84-3.64-0.49-1.51-0.21-2.83-0.41-1.13-0.18-2.1-0.36-0.82-0.16-1.48-0.33-0.54-0.15-0.97-0.31-0.32-0.15-0.55-0.32-0.16-0.16-0.23-0.34-0.04-0.19 0.01-0.78 0.23-0.41 0.28-0.14 0.69-0.24 0.56-0.06 1.29-0.07 0.92 0.03 2.03 0.1 1.35 0.12 2.93 0.28 1.85 0.21 1.93 0.22 1.06 0.13 2.21 0.26 1.21 0.15 2.51 0.32 1.38 0.17 2.83 0.36 1.54 0.2 4.2 0.55 2.57 0.35 1.18 0.17 4.45 0.67 1.85 0.32 3.46 0.66 1.42 0.34 2.65 0.71 1.07 0.39 1.99 0.82 0.81 0.47 1.49 0.99 0.62 0.58 1.16 1.22 0.51 0.71 0.99 1.51 0.49 0.88 1.16 2.41 0.56 1.54 0.18 0.81 0.3 1.66 0.08 0.94 0.09 1.96-0.01 1.16-0.07 6.08 5.95 4.48 7.78 6.35 4.83 4.45 2.25 2.34 4.38 4.77 2.02 2.5 3.94 5.09 1.8 2.67 3.49 5.43 1.59 2.84 3.07 5.78 1.37 3.03 2.65 6.14 1.17 3.21 2.23 6.52 0.97 3.4 1.32 5.25 0.63 3.37 0.22 1.9 0.21 1.95 0.08 1.09 0.17 2.24 0.06 1.28 0.13 2.64 0.06 1.52 0.11 3.15 0.05 1.81 0.13 6.32 0.01 3.74-0.03 1.7-0.11 3.28-0.1 1.52-0.25 2.98-0.18 1.43-0.89 5.62-0.73 2.99-0.78 3.05-0.48 1.64-1 3.4-0.59 1.88-0.59 1.81-0.29 0.81-0.56 1.54-0.26 0.61-0.48 1.1-0.18 0.35-0.34 0.53h-0.09l-0.39-0.34-0.36-0.54-0.21-0.39-0.91-1.87-0.45-1.19-0.84-2.41-0.29-1.24-0.01-0.54 0.06-1.06 0.15-0.58 0.4-1.21 0.32-0.77 1.48-4.39 0.85-3.4 0.34-1.89 0.65-3.89 0.24-2.09 0.44-4.25 0.14-2.22 0.34-9.04-0.17-4.53-0.24-4.5-0.2-2.19-0.48-4.31-0.33-2.04-0.55-3.78-0.27-2.35-0.09-1.01-0.14-1.88-0.02-0.68 0.02-1.17 0.08-0.24-0.05-1.58-0.48-1.04-0.41-0.34-0.74-0.91-0.59-0.95-0.31-0.6-1.31-2.7-0.56-1.48-2.47-5.97-1.94-4.15-1.07-2.07-2.2-4.13-1.16-1.97-2.34-3.87-1.18-1.75-2.14-2.92-1.77-2.21-1.01-1.19-4.32-4.93-2.34-2.46-2.34-2.44-1.16-1.15-2.28-2.24-1.07-1-2.08-1.9-0.92-0.78-1.76-1.43-0.71-0.5-1.59-1.04-0.88-0.49-0.36-0.14-0.68-0.2-0.28 0.02-0.52 0.13-0.21 0.2-0.4 0.5-0.16 0.39-0.3 0.9-0.14 0.61-0.25 1.33-0.12 0.84-0.23 1.79-0.12 1.09-0.68 6.03 6.31 6.43 6.34 5.56 2.17 1.57 1.07 0.67 2.12 1.27 1 0.49 2.79 1.52 1.65 1.05 0.73 0.55 1.37 1.11 0.6 0.58 1.11 1.2 0.46 0.62 0.87 1.28 0.34 0.68 0.62 1.38 0.22 0.73 0.65 3.05v1.73l-0.14 4.12-0.21 2.54-0.15 1.08-0.32 2.01-0.19 0.72-0.41 1.22-0.22 0.22-0.72 1.52-0.03 1.26 0.17 0.64 0.47 1.27 0.39 0.53 0.89 0.96 0.57 0.26 0.93 0.64 0.56 0.62 0.26 0.42 0.5 0.92 0.22 0.58 0.45 1.25 0.2 0.77 0.39 1.62 0.19 0.97 0.36 2.03 0.17 1.19 0.33 2.48 0.16 1.42 0.32 2.97 0.15 1.68 0.24 5.94-0.08 4.12-0.14 1.83-0.16 1.78-0.1 0.77-0.21 1.46-0.12 0.58-0.25 1.03-0.14 0.31-0.29 0.49h-0.15l-0.29-0.34-0.33-0.54-0.22-0.41-0.5-0.92-0.3-0.58-0.63-1.25-0.37-0.74-0.75-1.54-0.42-0.87-0.85-1.79-0.46-0.97-1.89-4.07-1.01-2.23-2.01-4.51-1.14-2.59-0.47-1.11-0.88-2.1-0.35-0.88-0.64-1.67-0.24-0.7-0.43-1.3-0.14-0.54-0.24-1-0.06-0.41-0.05-1.43 0.17-0.5 1.19-1.86 1.11-0.89 0.54-0.1 1.69-0.56 1.01-0.56 0.28-0.28 0.36-0.66-0.17-0.04-0.17 0.03-0.39 0.09-0.28 0.1-1.54 0.28-0.3-0.11-0.09-0.14-0.14-0.32-0.01-0.25 0.03-0.56 0.07-0.38 0.18-0.84 0.16-0.52 0.35-1.13 0.23-0.69 0.51-1.46 0.31-0.86 0.91-2.63 0.49-1.55 0.19-0.7 0.6-2.55 0.07-1.05v-1.99l-0.21-0.9-0.57-1.79-0.49-0.94-1.93-2.89-0.86-0.84-0.54-0.42-1.19-0.84-0.75-0.45-1.63-0.91-1.03-0.51-2.21-1.05-1.36-0.61-2.9-1.27-1.76-0.74-3.73-1.56-2.21-0.92-7.7-3.18-4.65-1.91-2.1-0.86-4.05-1.66-1.82-0.74-3.51-1.41-1.56-0.63-3.01-1.18-1.34-0.51-2.56-0.97-1.12-0.41-2.16-0.76-0.95-0.32-1.8-0.57-0.79-0.23-1.5-0.4-0.65-0.14-1.25-0.24-0.54-0.07-1.98-0.11-0.8 0.13-1.49 0.37-0.7 0.34-1.4 0.76-0.79 0.48-2.56 1.81-0.7 0.71-0.35 0.46-0.69 1.01-0.37 0.66-0.77 1.46-0.44 0.95-0.94 2.06-0.56 1.31-1.19 2.83-0.72 1.75-0.74 1.81-0.41 1-0.84 2.07-0.46 1.14-2.03 5.01-1.09 2.73-0.43 1.11-0.77 2.07-0.29 0.82-0.5 1.53-0.15 0.61-0.26 1.12-0.04 0.47-0.05 0.86 0.05 0.38 0.34 1.43 0.35 0.85 1.42 2.69 0.51 0.73 0.25 0.27 0.46 0.48 0.2 0.1 0.84 0.97 0.18 0.84-0.15 0.38 0.03 0.59 0.14 0.69 0.14 0.47 0.3 1.03 0.21 0.63 0.45 1.32 0.27 0.76 1.2 3.27 0.75 1.9 1.6 3.96 0.89 2.1 1.58 3.7 0.94 2.22 0.42 1 0.82 1.92 0.36 0.86 0.69 1.65 0.31 0.73 1.1 2.68 0.4 1.02 0.7 1.84 0.22 0.68 0.36 1.2 0.07 0.42 0.08 0.75-0.04 0.27-0.36 0.87-0.36 0.49-0.72 0.67-0.45-0.02-0.26-0.29-0.54-0.79-0.35-0.74-0.36-0.8-0.22-0.49-0.44-1.06-0.26-0.63-9.78-23.59-3.17-7.52-1.51-3.54-2.96-6.9-1.37-3.13-1.33-3.07-0.64-1.44-1.24-2.81-0.57-1.3-1.13-2.51-0.51-1.14-1-2.19-0.44-0.96-0.86-1.83-0.36-0.77-0.7-1.44-0.28-0.57-0.53-1.01-0.19-0.34-0.34-0.55-0.1-0.1-1.11-0.81-0.99-0.48-0.59-0.21-2.57-0.71-1.46-0.14-3.34 0.05-1.3 0.22-0.78 0.21-1.66 0.47-1.03 0.34-2.2 0.77-1.36 0.52-2.9 1.12-1.78 0.72-1.83 0.74-1.01 0.41-2.08 0.86-1.14 0.47-2.35 0.98-1.28 0.53-4.08 1.7-9.95 4.19-3.05 1.29-1.41 0.6-2.75 1.17-1.23 0.53-2.36 1-1.01 0.44-1.9 0.82-0.75 0.33-1.37 0.6-0.46 0.21-0.76 0.35-0.13 0.06-1.02 0.8-0.74 0.81-0.39 0.5-1.58 2.28-0.73 1.31-1.38 2.69-0.47 1.24-0.43 1.21-0.13 0.53-0.2 1v0.39l0.48 1.94 0.77 0.85 0.57 0.15 0.81 0.46 0.57 0.53 0.27 0.35 1.07 1.6 0.34 0.94 0.53 2.23v0.78l-0.06 0.46-0.18 0.98-0.17 0.59-0.39 1.28-0.29 0.79-0.63 1.7-0.43 1.04-0.91 2.23-0.58 1.35-1.22 2.89-0.75 1.72-6.3 14.65-0.32-7.87 0.07-7.18 0.39-5 0.34-2.48 0.78-4.93 0.53-2.31 1.13-4.48 0.68-1.95 1.34-4.78 0.31-1.52 0.1-0.65 0.15-1.22v-0.43l0.19-1.48 0.3-1.14 0.22-0.59 1.04-2.39 0.67-0.93 1.25-1.83 1.05-1.58 0.58-0.9 2.45-3.8 1.1-1.79 3.2-4.78 2.34-3.13 1.27-1.53 5.31-6.02 2.97-2.8 6.14-5.46 3.32-2.46 6.76-4.71 3.54-2 6.8-3.85 1.04-7.38 0.33-2.89 0.13-1.72 0.02-0.7 0.01-1.29-0.05-0.41-0.13-0.67-0.11-0.05-1.13 0.16-1.31 0.45-0.89 0.37-1.89 0.81-1.11 0.52-2.29 1.08-1.23 0.62-5.11 2.62-2.44 1.38-2.39 1.36-1.08 0.65-2.06 1.28-0.84 0.57-6.84 5.19-4.69 4.08-2.3 2.23-4.54 4.56-2.09 2.34-4.03 4.7-1.7 2.29-2.24 3.24-1.65 2.59-0.87 1.43-3.53 6.04-1.64 3.03-1.59 3-0.7 1.38-1.33 2.69-0.53 1.15-0.95 2.16-0.29 0.81-0.27 0.75-0.07 0.3-0.12 0.53v0.18l-0.64 1.37-0.95 0.93-0.6 0.39-1.25 0.7-0.6 0.18-1.16 0.22-0.41-0.16-0.65-0.06-0.32 0.21-0.11 0.24-0.19 0.58-0.05 0.44-0.07 1v0.66l0.25 2.47 0.37 0.93 0.24 0.1 0.52-0.06 0.28-0.42 0.27-0.48 0.14-0.34 0.26-0.76 0.12-0.47 0.72-1.65 0.28-0.25 0.14-0.02 0.27 0.04 0.13 0.13 0.22 0.84 0.01 0.99-0.07 0.65-0.18 1.42-0.15 0.83-0.36 1.73-0.23 0.93-0.8 4.45-0.4 3.66-0.14 2.09-0.24 4.31-0.06 2.3-0.07 4.68 0.02 2.38 0.09 4.77 0.1 2.32 0.25 4.57 0.18 2.12 0.4 4.09 0.25 1.77 0.56 3.34 0.33 1.28 0.58 2.33 0.32 1.31 0.11 0.56 0.37 2.01 0.04 0.78-0.03 1.43-0.15 0.67-0.39 1.35-0.32 0.81-1.24 2.56-0.39 0.59-0.16 0.18-0.31 0.29h-0.1l-0.39-0.22-0.29-0.37-0.16-0.28-0.65-1.39-0.35-1.03-0.72-2.27-0.37-1.39-0.76-2.95-0.37-1.66-0.73-3.43-0.35-1.83-0.68-3.71-0.3-1.9-0.57-3.8-0.24-1.86-0.42-3.68-0.14-1.73-0.21-5.5 0.07-3.96 0.14-2.1 0.34-4.26 0.26-2.2 0.59-4.44 0.37-2.25 1.74-9.07 1.17-4.39 1.22-4.35 0.67-2.09 1.39-4.11 0.75-1.93 4.73-10.14 3.84-6.66 2.23-3.25 4.65-6.42 2.58-3.08 5.32-6.05 2.87-2.85 5.88-5.56 3.1-2.56 6.31-4.94 3.27-2.2 6.61-4.21 3.38-1.78 6.79-3.35 3.41-1.31 6.74-2.57 0.63-4.73 0.78-3.56 0.79-2.18 0.52-1 1.14-1.91 0.68-0.85 1.46-1.63 0.83-0.7 1.75-1.33 0.97-0.54 2.02-0.99 1.1-0.37 2.27-0.65 1.21-0.19 2.49-0.28m26.2 158.51 0.29 0.29 0.16 0.26 0.44 1.18 0.03 0.73-0.13 0.22-0.43 0.42-0.36 0.15-0.78 0.23h-0.4l-0.69-0.09-0.25-0.17-0.03-0.16 0.02-0.37 0.1-0.28 0.28-0.63 0.23-0.44 0.59-0.96 0.34-0.38 0.15-0.06 0.29-0.04m-61.04-73.39v0.12l-0.2 0.19-0.2 0.13-1.06 0.69-0.85 0.49-1.9 1.08-1.2 0.66-2.55 1.36-1.44 0.75-4.23 2.29-2.64 1.53-1.13 0.71-2.12 1.36-0.77 0.56-0.72 0.54-0.27 0.23-0.48 0.42-0.14 0.17-1.25 1.32-0.68 0.54-1.34 0.97-0.48 0.17-0.86 0.19-0.41-0.09-0.13-0.16-0.22-0.41-0.05-0.35-0.08-0.8v-0.56l0.14-1.39 0.25-0.76 0.22-0.32 0.49-0.61 0.36-0.26 0.78-0.51 0.51-0.24 3.1-1.4 2.38-1.04 1.29-0.55 5.34-2.24 2.56-1.05 2.52-1.01 1.14-0.45 2.18-0.85 0.89-0.34 1.65-0.61 0.55-0.18 0.93-0.29m74.4-23.9 0.82 0.2 0.52 0.16 1.12 0.34 0.65 0.22 1.36 0.46 0.76 0.27 3.19 1.17 1.75 0.67 3.57 1.39 1.78 0.73 3.53 1.45 1.59 0.68 3.05 1.33 1.2 0.56 1.13 0.54 0.46 0.24 0.84 0.44 0.29 0.17 0.49 0.32 0.1 0.1 0.09 0.18-0.12 0.02-0.49-0.02-0.52-0.08-0.34-0.07-1.6-0.38-1.07-0.29-2.3-0.66-1.31-0.4-2.73-0.86-1.44-0.49-3.57-1.17-2.12-0.65-0.93-0.27-1.8-0.49-0.8-0.18-1.52-0.34-0.67-0.11-2.47-0.3-0.99 0.06-1.85 0.25-0.81 0.31-0.49 0.45-0.47 0.61-0.3 0.44-0.64 0.97-0.37 0.6-0.79 1.29-0.43 0.75-1.85 3.25-1.03 1.93-2.12 4.03-1.09 2.18-1.72 3.42-0.74 1.46-1.4 2.74-0.59 1.14-1.1 2.11-0.46 0.83-0.84 1.53-0.33 0.56-0.61 1-0.23 0.32-0.4 0.51-0.14 0.1-0.23 0.08-0.06-0.1-0.09-0.3v-0.27l0.15-0.67 0.24-0.76 0.19-0.53 0.41-1.13 0.26-0.69 0.55-1.45 0.32-0.82 1.39-3.52 0.81-2 1.68-4.12 0.88-2.11 1.77-4.23 0.86-2 1.66-3.87 0.73-1.63 0.7-1.57 0.32-0.69 0.59-1.29 0.25-0.52 0.47-0.94 0.17-0.33 0.31-0.54 0.08-0.1 1.82-1.24 1.54-0.51h0.69m-37.59-48.99 4.41 0.21 3.09 0.3 1.38 0.2 1.34 0.2 0.59 0.11 1.11 0.22 0.43 0.11 0.79 0.22 0.24 0.1 0.37 0.21v0.09l-0.53 0.35-0.82 0.27-0.6 0.14-1.33 0.3-0.79 0.14-1.67 0.29-0.91 0.12-3.38 0.56-1.69 0.41-0.63 0.26-1.14 0.54-0.45 0.36-0.82 0.78-0.36 0.5-0.34 0.63-0.26 0.64-0.15 0.42-0.64 1.94-0.37 1.29-0.77 2.77-0.42 1.62-0.85 3.38-0.43 1.83-1.74 7.62-0.77 3.79-0.73 3.74-0.32 1.74-0.58 3.39-0.22 1.47-0.39 2.05-0.26 0.78-0.26 0.72-0.14 0.26-0.26 0.43-0.11 0.07-0.62 0.13-0.2-0.41 0.01-0.58 0.02-0.64 0.04-0.44 0.1-0.96 0.07-0.61 0.17-1.32 0.11-0.81 0.23-1.72 0.15-1.03 0.23-1.64 0.17-1.33 0.11-0.77 0.43-3.31 0.24-1.92 1.04-8.2 0.48-3.97 0.7-5.37 0.44-2.98 0.23-1.23 0.46-2.27 0.25-0.9 0.52-1.65 0.3-0.63 0.63-1.13 0.37-0.4 0.78-0.7 0.46-0.22 0.97-0.36 0.57-0.09 1.21-0.11m19.02-8.75 0.44 0.39v0.24l-0.17 0.54-0.27 0.26-0.65 0.51-0.41 0.16-1.09 0.02-0.41-0.46v-0.45l0.44-1.04 0.65-0.43h0.41z" fill="#0f70b4"/>
<path d="m230.69 422.11 0.31 0.16v0.11l0.09 0.27 0.15 0.36 0.11 0.27 0.56 1.28 0.4 0.91 0.89 1.97 0.53 1.17 1.12 2.44 0.62 1.33 1.1 2.42 0.63 1.42 0.26 0.62 0.48 1.17 0.19 0.49 0.34 0.93 0.12 0.39 0.35 1.31-0.02 0.35-0.17 0.52h-0.26l-1.21-0.73-0.7-1.08-0.17-0.69-0.5-1.37-0.5-0.58-0.44-0.17-1.03-0.26-0.82-0.05-0.88-0.05-0.54-0.01-1.15-0.01h-0.68l-1.81 0.01-1 0.03-0.42 0.03-1.44 0.16-0.46 0.17-0.8 0.41-0.26 0.34-0.46 0.78-0.22 0.57-0.49 1.02-0.32 0.41-0.67 0.74-0.32 0.22-0.63 0.31-0.21-0.06-0.36-0.26v-0.4l0.39-1.33 0.61-1.48 0.43-0.96 0.94-2.02 0.54-1.13 1.13-2.3 0.6-1.16 1.19-2.32 0.57-1.07 1.12-2.06 0.49-0.85 0.91-1.54 0.33-0.49 0.31-0.44 0.12-0.13 0.2-0.2h0.05m-32.71 0.62 0.87 0.27 1.59 0.6 0.45 0.37 0.37 0.37 0.07 0.19 0.05 0.39-0.12 0.19-0.93 0.51-0.94-0.17-0.62-0.34-2.92-0.93-1.91-0.05-0.89 0.22-1.75 0.58-0.77 0.49-1.47 1.09-0.59 0.68-1.07 1.45-0.35 0.82-0.57 1.68-0.05 0.88 0.07 1.78 0.31 0.87 0.81 1.74 0.72 0.8 2.28 2.03 1.56 0.88 0.8 0.21 1.6 0.26 0.81-0.1 1.64-0.37 0.83-0.41 2.1-0.7 1.02-0.01 0.24 0.16 0.29 0.43-0.21 0.33-0.27 0.35-0.24 0.19-0.55 0.39-0.39 0.21-1.96 0.83-1.06 0.16-2.15 0.16-1.09-0.16-2.16-0.49-1.03-0.47-1.99-1.11-0.86-0.77-1.93-2.28-0.87-1.65-0.23-0.86-0.34-1.74 0.02-0.87 0.17-1.73 0.26-0.83 0.64-1.62 0.48-0.73 1.08-1.41 0.69-0.6 1.48-1.11 0.89-0.41 1.86-0.7 1.06-0.17 3.1-0.07m71.98-0.12 2.93 0.31 1.54 0.28 0.59 0.18 1.08 0.4 0.4 0.25 0.71 0.55 0.25 0.34 1.06 2.25 0.29 1.65-0.06 0.82-0.24 1.63-0.32 0.73-0.77 1.38-0.58 0.52-1.12 1.1-0.37 0.58 0.01 0.32 0.14 0.69 0.26 0.5 0.64 1.13 0.52 0.84 0.77 1.38 0.32 0.73 0.08 0.27 0.1 0.49-0.03 0.15-0.1 0.23-0.12 0.02-0.29-0.02-0.2-0.11-0.43-0.29-0.27-0.24-0.56-0.55-0.33-0.38-0.66-0.82-0.37-0.51-1.2-1.45-0.78-0.7-0.43-0.23-0.88-0.38-0.51-0.1-1.1-0.14h-0.67l-1.86 0.08-0.8 0.19-0.23 0.2-0.37 0.49-0.08 0.41-0.09 0.94v0.69l-0.11 1.57-0.18 0.55-0.2 0.49-0.12 0.15-0.25 0.24h-0.14l-0.41-0.73-0.23-1.17-0.09-0.88-0.15-1.96-0.05-1.23-0.07-2.63v-11.64m44.72 0.51 3.52 0.37 1.73 0.32 0.65 0.23 1.18 0.52 0.5 0.37 0.94 0.82 0.48 0.56 1.87 3.27 0.56 2.39-0.06 1.22-0.34 2.43-0.5 1.15-1.23 2.21-0.94 0.95-1.2 1.15-0.54 0.4-1.09 0.68-0.63 0.2-1.34 0.33-0.89 0.07-1.97 0.09h-7.42v-20.27m2 18.27h4.93l2.59-0.1 1.3-0.2 0.51-0.19 0.94-0.45 0.41-0.35 0.81-0.79 0.44-0.55 1.45-2.58 0.51-1.81 0.03-0.91-0.11-1.81-0.29-0.86-0.73-1.68-0.6-0.74-1.12-1.06-0.91-0.56-0.55-0.22-1.19-0.4-0.73-0.14-1.56-0.27-0.94-0.09-5.19-0.49m-71.46 1.38-0.32 0.53-0.35 0.68-0.22 0.47-0.99 2.16-0.56 1.3-2.03 4.73h4.47l3.15-0.12 0.73-0.09 0.23-0.05 0.35-0.1v-0.06l-0.18-0.74-0.27-0.77-0.2-0.49-0.91-2.14-0.54-1.14-1.08-2.22-0.43-0.78-0.41-0.71-0.15-0.2-0.25-0.31m33.42-1.08v10h3.93l2.9-0.36 1.61-0.58 0.62-0.43 1.1-0.97 0.33-0.61 0.51-1.3v-0.75l-0.51-2.05-0.81-1.14-0.62-0.44-1.37-0.78-0.86-0.23-1.84-0.36m30.04-80.96 3.92 0.16 1.82 0.31 1.78 0.35 0.81 0.24 1.58 0.51 0.69 0.31 1.71 0.82 0.95 0.49 0.37 0.23 1.25 0.87 0.26 0.41 0.3 0.8-0.18 0.42-0.56 0.88-0.57 0.51-1.08 0.84-0.65 0.26-0.38-0.03-0.83-0.15-0.57-0.24-1.27-0.58-0.91-0.46-3.01-1.18-2.1-0.49-1.08-0.11-2.16-0.12-1.08 0.08-2.14 0.23-1.04 0.25-2.05 0.57-0.96 0.41-1.88 0.89-0.85 0.56-1.63 1.19-0.7 0.7-1.31 1.48-0.52 0.84-0.87 1.82-0.45 1.38-0.17 0.75-0.5 3.13v1.62l0.16 3.23 0.33 1.46 0.38 1.42 0.24 0.63 0.54 1.21 0.33 0.5 1.99 2.43 1.56 1.4 0.87 0.59 1.78 1.09 0.96 0.43 1.95 0.77 1 0.25 2.03 0.43 1.03 0.08 2.04 0.06 1-0.11 1.98-0.32 0.94-0.31 1.85-0.72 0.84-0.51 2.52-1.35 1.34-0.5 0.56-0.05 1.03 0.03 0.43 0.21 0.83 0.54 0.39 0.46 0.33 0.75v0.55l-0.11 0.3-0.69 1.24-0.71 0.65-1.65 1.31-1.11 0.62-2.41 1.2-1.42 0.51-3.58 1.01-1.78 0.17-3.53 0.11-1.71-0.25-3.36-0.7-1.58-0.63-3.08-1.43-1.38-0.95-2.66-2.08-1.13-1.25-2.13-2.63-0.81-1.49-1.46-3.1-0.43-1.7-0.67-3.49v-1.86l0.3-4.78 0.2-1.44 0.12-0.59 0.25-1.09 0.14-0.36 1.74-3.23 1.61-2.15 0.96-0.99 2.01-1.93 1.07-0.8 2.17-1.47 1.08-0.49 2.25-0.81 1.68-0.42 0.9-0.16 3.77-0.46m-118.49-163.38-0.55 0.44-1.02 0.86-0.38 0.39-0.67 0.75-0.2 0.33-0.31 0.65-0.03 0.29 0.03 0.55 0.15 0.24 0.44 0.19 0.6 0.11 0.44 0.06 0.96 0.1 0.61 0.05 1.29 0.09 0.75 0.04 3.28 0.13 1.97 0.04 4.13 0.05 2.27-0.01 6.56-0.03 4.13-0.02h1.79 1.73 0.78l1.48-0.01 0.62 0.01h1.17 0.45 0.81l0.24 0.01 3.6 0.04 6.82 14.25 1.58 3.3 1.22 2.52 0.66 1.39 1.38 2.86 0.73 1.52 1.5 3.1 0.77 1.61 3.16 6.55 1.57 3.27 3.11 6.45 1.41 2.92 10.27 21.24 6.54-2.94-0.83 0.4-1.57 0.84-0.75 0.42-1.26 0.79-0.58 0.38-0.77 0.66-0.37 0.73 0.03 0.08 0.21 0.48 0.52 1.12 0.21 0.46 0.55 1.16 0.28 0.62 0.68 1.43 0.7 1.5 1.71 3.62 2.86 6.02 7.27 15.25h70.67l-3.12-6.5-0.69-0.02 0.03-0.01 0.12-0.22 0.02-0.64-0.14-0.73-0.14-0.47-0.7-2.15-0.53-1.23-1.92-4.47-0.21 0.26-7.59-16.9-1.05-2.32-1.95-4.24-0.46-1.01-0.88-1.86-0.42-0.9-0.77-1.6-0.37-0.77-0.64-1.3-0.3-0.61-0.5-0.96-0.22-0.43-0.32-0.56-0.27-0.35h-0.03l-0.17 0.22-0.09 0.14-0.26 0.49-0.29 0.54-0.82 1.76-0.45 0.97-1.05 2.45-0.41 0.99 3.71-9.1-4.2-8.98-4.19-8.99-4.48 9.5-2.66 5.72-1.89 4.12-0.97 2.12-1.93 4.28-0.94 2.11-1.86 4.17-0.87 1.96-1.67 3.8-0.72 1.67-1.37 3.17-0.53 1.26-0.5 1.2-0.2 0.5-0.38 0.93-0.14 0.35-0.23 0.64-0.07 0.19-0.08 0.3 0.02 0.02 0.34 0.17 0.43 0.18 0.3 0.11 0.85 0.32-0.27-0.05-0.8-0.14-1.16 0.27-0.53 0.24-0.9 1.15-0.23 0.35-0.46 0.89-0.77 1.65-0.28 0.64-0.57 1.12-0.29 0.52-0.53 0.8-0.25 0.36-0.42 0.42-0.45 0.09-0.1-0.1-0.46-0.74-0.27-0.44-0.72-1.31-0.39-0.71-0.88-1.7-1.42-2.82-1.15-2.3-0.35-0.68-0.61-1.1-0.6-1.04-1.17-1.36-0.62-0.61-1.66-0.94-0.21-0.11 0.56 0.13 1.06 0.18 0.3-0.05 0.45-0.2v-0.25l-0.13-0.42-0.19-0.5-0.14-0.32-0.67-1.47-0.4-0.83-0.82-1.67-0.35-0.67-0.34-0.63-0.13-0.23-0.24-0.39-0.07-0.09-0.42 0.05-0.57 0.17-0.4 0.14-1.87 0.73-0.34 0.15 1.44-0.82 0.62-0.4 0.71-0.75 0.26-0.36-0.01-0.67-0.85-0.91-0.18-0.12-0.86 0.08-0.5 0.09-1.32 0.41-0.71 0.24-1.58 0.63 0.38-0.17 1.59-0.73 0.64-0.31 1.18-0.56 0.38-0.19 0.61-0.32 0.04-0.04 0.03-0.33-0.08-0.39-0.08-0.27-0.42-1.21-0.32-0.72-0.7-1.27-0.47-0.56-0.27-0.15-0.58-0.21h-0.36l-0.44 0.04 0.31-0.3 0.13-0.22-0.03-0.73-0.44-1.18-0.16-0.26-0.29-0.29-0.15-0.1-0.29 0.04-0.15 0.06-0.34 0.38-0.59 0.96-0.18 0.34 0.78-2.35 0.33-1.91v-0.82l0.4-2.37 0.27-0.65 0.16-0.25 0.35-0.44 0.18-0.11 0.66-0.56 0.51-0.57 0.27-0.36 1.1-1.6 0.44-0.87 0.77-2.22v-0.9l-0.1-0.59-0.29-1.3-0.28-0.88-0.64-1.93-0.48-1.27-0.5-1.32-0.3-0.75-0.62-1.57-0.36-0.89-0.75-1.84-0.42-1.03-0.89-2.13-0.49-1.19-1.03-2.47-0.56-1.36-1.18-2.81-0.65-1.55-3.98-9.55-1.71-4.09 0.22 0.51 3.17 7.52 9.78 23.59 0.26 0.63 0.44 1.06 0.22 0.49 0.36 0.8 0.35 0.74 0.54 0.79 0.26 0.29 0.45 0.02 0.72-0.67 0.36-0.49 0.36-0.87 0.04-0.27-0.08-0.75-0.03-0.16 0.24-0.01 0.28-0.32 0.64-0.85 0.43-0.74 0.95-1.71 0.6-1.18 0.9-1.95 0.48-1.19 0.17-0.5 0.27-0.94 0.04-0.33 0.03-0.55-0.1-0.09-0.12-0.7 0.31-0.51 0.33-0.21 0.38-0.38 0.33-0.44 0.19-0.31 0.86-1.42 0.52-0.97 1.08-2.06 0.59-1.19 1.19-2.44 0.59-1.27 1.17-2.56 0.53-1.23 1.03-2.4 0.41-1.05 0.77-1.99 0.24-0.75 0.37-1.31v-0.3l0.3-1.54 0.51-0.8 0.4-0.28 0.89-0.49 0.59-0.13 1.27-0.17 0.77 0.03 0.84 0.02 0.92 0.02 0.62 0.01 1.34 0.01 0.8 0.01 1.7 0.02 0.97 0.01 4.14 0.04 2.39 0.01 4.94 0.04 2.62 0.01 19.01 0.1 1.67 4.17 0.97 2.34 0.47 0.87 0.2 0.13 0.39 0.06 0.23-0.23 0.5-0.63 0.35-0.54 1.55-1.53 0.45-0.23-0.93 0.74-1.19 1.86-0.17 0.5 0.05 1.43 0.06 0.41 0.24 1 0.14 0.54 0.43 1.3 0.24 0.7 0.64 1.67 0.35 0.88 0.88 2.1 0.47 1.11 1.14 2.59 2.01 4.51 1.01 2.23 1.89 4.07 0.46 0.97 0.85 1.79 0.42 0.87 0.75 1.54 0.37 0.74 0.63 1.25 0.3 0.58 0.5 0.92 0.22 0.41 0.33 0.54 0.29 0.34h0.15l0.29-0.49 0.14-0.31 0.25-1.03 0.12-0.58 0.21-1.46 0.1-0.77 0.1-1.19 0.1 10.33 3.82 8.25 1.05 2.22 0.5 0.98 0.97 1.88 0.41 0.75 0.78 1.35 0.29 0.42 0.5 0.65h0.11l0.44-0.23 0.3-0.37 0.06-0.11-0.18 0.55-0.15 0.58-0.06 1.06 0.01 0.54 0.29 1.24 0.84 2.41 0.45 1.19 0.91 1.87 0.21 0.39 0.36 0.54 0.39 0.34h0.09l0.34-0.53 0.18-0.35 0.48-1.1 0.26-0.61 0.56-1.54 0.29-0.81 0.59-1.81 0.59-1.88 1-3.4 0.48-1.64 0.78-3.05 0.58-2.37-0.22 1.33-0.79 3.07-0.84 3.11-0.5 1.62-1.06 3.31-0.61 1.78-1.95 5.63 6.24 13.87 2.28 5.04 1.25 2.69 0.54 1.06 1.04 1.93 0.49 0.73 0.97 1.31 0.52 0.47 1.06 0.81 0.61 0.27 1.29 0.46 0.78 0.14h0.02l-0.68-0.01-1.43 0.04-0.65 0.03-0.92 0.12-0.6 0.27v0.15l0.57 0.26 0.37 0.12 1.21 0.2 0.68 0.09 1.75 0.12 2.86 0.06-6.42 0.51 4.99 10.94 1.94 4.27 1.13 2.53 0.45 1.02 0.82 1.85 0.26 0.59 0.22 0.54 0.07 0.16 0.1 0.27v0.02l-0.38 0.06-0.63 0.04-0.47 0.02-1.06 0.04-0.68 0.01-1.45 0.03-0.85 0.02-1.79 0.03-1 0.01-2.07 0.02-1.12 0.01-4.72 0.02h-21.39l-9.96-22.5-35.21-0.26-7.08-0.04-4.49-0.02h-2.11-4.1-1.88l-3.62 0.02-1.6 0.01-3.04 0.03-1.26 0.01-2.37 0.04-0.89 0.03-1.59 0.05-0.47 0.03-0.72 0.07v0.04l0.1 0.3 0.16 0.39 0.12 0.28 0.6 1.33 0.44 0.93 0.96 2.02 0.58 1.19 1.21 2.48 0.66 1.34 2.18 4.43 1.58 3.23 0.78 1.63 1.55 3.23 0.7 1.48 1.34 2.83 0.52 1.13 3.82 8.23-8.37 18.52-3.3 7.19-1.01 2.16-0.47 0.99-0.91 1.9-0.41 0.84-0.78 1.6-0.34 0.67-0.63 1.24-0.25 0.47-0.45 0.83-0.15 0.25-0.26 0.38h-0.04l-0.51-0.57-0.56-0.9-0.36-0.65-0.76-1.43-0.43-0.86-0.88-1.81-0.46-1-1.32-2.71-0.8-1.51-0.33-0.56-0.62-0.98-0.21-0.24-0.35-0.3-0.05 0.14 0.08 0.52 0.18 0.64 0.16 0.45 0.35 0.99 0.23 0.6 0.51 1.28 0.3 0.74 1.33 3.2 0.81 1.87 1.73 3.91 0.96 2.09 1.6 3.49 0.96 2.09 0.42 0.94 0.83 1.81 0.36 0.8 0.7 1.55 0.3 0.68 1.08 2.48 0.37 0.92 0.62 1.65 0.16 0.58 0.22 0.99-0.02 0.3-0.14 0.5-0.19 0.12-0.46 0.17-0.33 0.01-0.72 0.01h-0.45l-1.59-0.18-0.84-0.35-0.37-0.35-0.73-0.85-0.39-0.67-0.82-1.52-0.5-1.08-2.34-5h-22.83l-2.11 5-0.87 2.01-0.36 0.68-0.7 1.16-0.36 0.35-0.76 0.54-0.49 0.11-1.06 0.15h-3.93l9.4-20.68 3.66-8.05 1.09-2.43 0.5-1.11 0.97-2.14 0.43-0.95 0.81-1.81 0.34-0.76 0.63-1.42 0.24-0.54 0.42-0.97 0.13-0.29 0.19-0.46v-0.01l0.3-0.13 0.48-0.1 0.34-0.05 1.65-0.21 1.05-0.08 3.83-0.31-25.32-53-31.96-0.26-31.95-0.27-4.85 11.52-4.84 11.51h-38.57l4.87-11.25 4.86-11.25-6.31-0.5h0.17l1.83-0.07 0.88-0.05 1.51-0.16 0.69-0.08 1.02-0.22 0.43-0.11 0.36-0.25 0.06-0.11-0.49-0.16-0.33-0.06-1.12-0.08-0.62-0.02-1.24-0.01 0.15-0.02 1.39-0.35 0.59-0.29 1.12-0.66 0.51-0.5 0.99-1.13 0.5-0.79 1-1.73 0.55-1.14 1.15-2.47 0.68-1.56 0.7-1.62 0.39-0.9 0.79-1.86 0.44-1.03 6.37-14.87-0.97-2.82 0.11 0.25 0.16 0.28 0.29 0.37 0.39 0.22h0.1l0.31-0.29 0.16-0.18 0.39-0.59 1.24-2.56 0.32-0.81 0.39-1.35 0.15-0.67 0.03-1.43-0.04-0.78-0.37-2.01-0.11-0.56-0.32-1.31-0.58-2.33-0.33-1.28-0.15-0.89 0.19 0.84 0.53 2.2 0.27 0.95 0.54 1.78 0.24 0.68 0.48 1.2 0.19 0.32 0.36 0.45 0.11-0.11 0.64-1.06 0.69-1.33 0.44-0.92 0.93-1.97 0.52-1.15 1.08-2.39 0.55-1.28 1.26-2.95 0.69-1.68 0.28-0.74 0.94-2.72 0.26-1.26 0.41-2.54 0.09-1.55 0.06-1.61 0.01-0.93 0.02-1.97v-1.16l0.24-5.4-0.06 5.7 0.32 7.87 6.3-14.65 0.75-1.72 1.22-2.89 0.58-1.35 0.91-2.23 0.43-1.04 0.63-1.7 0.29-0.79 0.39-1.28 0.17-0.59 0.18-0.98 0.06-0.46v-0.78l-0.53-2.23-0.34-0.94-1.07-1.6-0.27-0.35-0.57-0.53-0.52-0.3 0.49 0.27 0.57 0.51 0.28 0.33 1.06 1.51 0.34 0.88 1.25 3.18 1.91-3.5 1.36-3.73 0.16-1.29-0.01-0.71-0.06-1.47-0.06-0.49 0.08 0.1 0.41 0.09 0.86-0.19 0.48-0.17 1.34-0.97 0.68-0.54 1.25-1.32 0.14-0.17 0.48-0.42 0.27-0.23 0.72-0.54 0.77-0.56 0.85-0.54m209.27 169.15h-11.5l-4.47 0.06-2.62 0.09-1.05 0.07-1.9 0.15-0.59 0.09-0.52 0.09-0.16 0.05-0.24 0.1-0.01 0.05-0.03 0.73-0.04 0.85-0.02 0.57-0.08 2.59-0.05 1.51-0.16 5.5 10.72 0.28 3.47 0.1 1.88 0.07 0.75 0.04 1.38 0.09 0.52 0.05 0.95 0.13 0.35 0.08 0.6 0.18 0.19 0.12 0.34 0.27 0.09 0.16 0.2 0.77v0.57l-0.61 1.76-0.49 0.44-0.36 0.18-0.78 0.34-0.51 0.14-1.11 0.25-0.68 0.09-1.47 0.17-0.89 0.06-1.87 0.1-1.1 0.02-2.32 0.04h-8.62l-0.34 4.86-0.2 2.8-0.07 1.49 0.03 0.58 0.13 1.06 0.17 0.39 0.43 0.7 0.36 0.25 0.84 0.42 0.61 0.12 1.36 0.21 0.91 0.05 1.98 0.06 1.27 0.01h2.73 13.6v5h-31v-42h30m-61.82 0.11 0.71 0.22 0.28 0.22 0.53 0.52 0.21 0.42 0.38 0.93 0.14 0.66 0.25 1.46 0.08 0.96 0.15 2.09 0.03 1.32 0.06 2.83 0.01 1.73v3.68l-0.01 2.2-0.04 5.63-0.01 3.44-0.01 1.44v1.39 0.6 1.14 0.46 0.86 0.3l0.01 0.52v0.12l0.37 0.93 0.32 0.22 0.24 0.09 0.56 0.16 0.38 0.06 0.84 0.11 0.55 0.04 1.19 0.06 0.75 0.03 1.6 0.03 0.97 0.01 2.06 0.01h12.22v5h-29v-42h2.89m-121.59 0.15 4.61 0.18 2.61 0.16 1.11 0.12 2.08 0.26 0.88 0.18 1.65 0.38 0.7 0.25 1.32 0.55 0.56 0.35 1.08 0.74 0.47 0.46 0.93 0.97 0.43 0.59 0.87 1.24 0.44 0.72 1.14 2.44 0.5 1.72 0.12 0.89 0.15 1.8-0.05 0.9-0.18 1.8-0.21 0.89-0.49 1.75-0.35 0.84-0.79 1.64-0.51 0.75-1.07 1.47-0.64 0.64-1.35 1.23-0.77 0.5-2.55 1.68 4.51 6.31 1.74 2.49 1.03 1.51 0.41 0.62 0.74 1.15 0.22 0.39 0.36 0.64v0.08l-0.23 0.22-0.36 0.13-0.27 0.05-1.25 0.17h-0.8l-1.67-0.25-1.02-0.49-0.55-0.48-1.15-1.12-0.71-0.88-0.73-0.93-0.42-0.55-0.86-1.18-0.49-0.69-2.17-2.87-1.22-1.45-0.51-0.5-0.95-0.84-0.38-0.19-0.69-0.25-0.25 0.1-0.96 0.22-0.95 0.13-0.58 0.05-2.56 0.17h-6.27v12h-6v-42.21m-13 42.21h-6v-42h6m-59.1 0.51 0.55 0.43 0.31 0.32 0.64 0.71 0.37 0.49 0.77 1.04 0.45 0.67 0.95 1.44 0.55 0.88 1.16 1.88 0.68 1.12 1.41 2.37 0.82 1.39 3.11 5.24 1.9 3.16 0.8 1.31 0.78 1.26 0.34 0.54 0.64 1.02 0.26 0.41 0.48 0.75 0.18 0.25 0.3 0.43 0.07 0.08 0.38 0.13 0.35-0.13 0.22-0.18 0.47-0.44 0.29-0.34 0.63-0.77 0.37-0.52 0.8-1.13 0.46-0.71 0.98-1.52 0.56-0.9 1.18-1.92 0.67-1.12 1.4-2.35 0.79-1.35 2.59-4.38 1.44-2.42 0.61-0.98 1.15-1.83 0.48-0.72 0.91-1.31 0.38-0.5 0.73-0.88 0.32-0.31 0.61-0.54 0.29-0.16 1.11-0.42h3.41v42h-6v-14.5l-0.06-5.63-0.09-3.29-0.07-1.32-0.07-1.25-0.04-0.52-0.08-0.97-0.05-0.37-0.09-0.65-0.05-0.19-0.1-0.3h-0.05l-0.29 0.25-0.33 0.4-0.22 0.3-0.49 0.68-0.29 0.44-0.61 0.92-0.36 0.55-1.51 2.38-0.87 1.44-1.82 3.01-0.96 1.65-1.65 2.79-1.02 1.67-0.47 0.74-0.9 1.43-0.42 0.61-0.79 1.18-0.36 0.49-0.68 0.92-0.3 0.36-0.57 0.66-0.24 0.24-0.46 0.41-0.18 0.1-0.34 0.15-0.12-0.02-0.44-0.29-0.43-0.42-0.26-0.31-0.57-0.68-0.34-0.43-0.69-0.91-0.38-0.54-1.64-2.32-0.91-1.39-1.88-2.9-0.96-1.58-7-11.49-0.6 14-0.25 5.46-0.15 3.21-0.07 1.29-0.06 1.23-0.03 0.52-0.06 0.97-0.03 0.37-0.04 0.66-0.02 0.2-0.03 0.32-0.01 0.02-0.36 0.13-0.48 0.05-1.12 0.07h-3.19v-42h2.39m132.53 7.69-0.62 1.02-0.63 1.26-0.4 0.83-0.83 1.79-0.45 1.02-0.93 2.09-0.46 1.08-0.93 2.16-0.42 1.03-0.82 1.99-0.33 0.86-0.61 1.59-0.19 0.56-0.3 0.96v0.16l0.25 0.26 0.43 0.11 1.04 0.2 0.74 0.08 1.61 0.13 0.93 0.04 1.93 0.07h1 2.01l0.95-0.03 1.85-0.07 0.79-0.07 1.45-0.15 0.49-0.1 0.82-0.22 0.09-0.14 0.04-0.42-0.07-0.46-0.08-0.31-0.42-1.42-0.35-0.93-0.76-1.99-0.47-1.11-0.97-2.27-0.53-1.15-1.06-2.28-0.51-1.04-1.02-2-0.45-0.8-0.84-1.44-0.31-0.41-0.29-0.35-0.12-0.09-0.19-0.1m-52.98 16.37 7.25-0.01 5.85-0.39 1.69-0.25 0.67-0.15 1.2-0.32 0.34-0.17 1.87-1.34 1.02-1.14 0.39-0.66 0.71-1.36 0.23-0.74 0.38-1.51 0.07-0.77 0.05-1.54-0.09-0.75-0.29-1.49-0.27-0.69-0.63-1.33-0.45-0.57-0.99-1.08-0.63-0.42-1.61-0.73-1.45-0.43-0.89-0.18-1.89-0.34-1.09-0.13-2.27-0.24-1.25-0.07-7.92-0.46m-1.87-127.16-0.24 0.38-0.4 0.75-0.69 1.42-0.45 0.97-0.96 2.09-0.53 1.21-1.1 2.53-0.57 1.34-4.14 9.77 4.19 9.67-0.41-0.93-0.69-1.52-1.19-2.52-0.27-0.58-0.72-1.44-0.38-0.72-0.17-0.32-0.26-0.42-0.23-0.26h-0.04l-0.21 0.32-0.13 0.21-0.36 0.69-0.2 0.39-0.49 1.01-0.26 0.54-0.6 1.28-0.62 1.34-1.46 3.24-0.75 1.69-1.58 3.61-0.78 1.81-1.52 3.55-0.73 1.73-1.26 3.06-0.29 0.71-0.5 1.26-0.24 0.6-0.37 0.99-0.17 0.46-0.22 0.66-0.14 0.57v0.12l0.24 0.5 0.16 0.28 0.5 0.78 2.04 2.7-1.81-2.07-0.58-0.58-0.22-0.17-0.38-0.28h-0.09l-0.37 0.32-0.33 0.5-0.2 0.37-0.86 1.7-0.44 1.03-0.85 2.11-0.31 0.93-0.28 0.89-0.08 0.36-0.14 0.66v0.21l0.2 0.31 0.4 0.1 1.01 0.17 0.81 0.03 1.83 0.02 1.22-0.05 1.95-0.09-0.52 0.04-0.79 0.07-1.4 0.14-1.33 0.15-1.96 0.34-0.88 0.19-1.19 0.44-1.1 0.8-0.4 0.53-0.58 0.86-0.23 0.41-0.06 0.64 0.05 0.3 0.67 0.46 0.22 0.1 0.63 0.18 0.34 0.08 0.89 0.15 0.48 0.06 1.18 0.12 0.62 0.05 1.5 0.08 0.79 0.04 1.84 0.06 0.97 0.03 2.22 0.04 1.16 0.01 2.62 0.03 1.36 0.01 3.06 0.01h1.58l3.51 0.01h5.82 31.5l-10.32-20.75 0.3-0.14-6.6-13.8-2.95-6.19-2.11-4.43-1.04-2.2-2.06-4.33-0.92-1.94-0.9-1.9-0.41-0.86-0.78-1.66-0.34-0.72-1.98-3.97-1.21-2.26-0.52-0.86-0.97-1.52-0.35-0.42-0.32-0.36-0.12-0.08-0.2-0.09m-81.17 67.8-0.38 0.13-1.14-0.09 1.84-0.09m63.6-9.89 0.55 0.52 1.15 0.6 0.63 0.24 1.72 0.21 0.49 0.04 1.19 0.04 2.15 0.03 1.18 0.01 1.72 0.08 0.76 0.05 0.92 0.15 0.36 0.08 0.15 0.19-0.01 0.1-0.46 0.19 0.45-0.19v-0.1l-0.18-0.2-0.36-0.07-0.92-0.15-0.76-0.05-1.71-0.08-1.17-0.01-2.14-0.03-1.19-0.04-0.49-0.04-1.72-0.2-0.62-0.23-1.11-0.57-0.52-0.48-1.04-1.13-0.05-0.06m126.83 1.91-0.82 0.02-1.49 0.04-0.53 0.03-0.94 0.05-0.27 0.04-0.41 0.08-0.02 0.05 0.07 0.1 0.21 0.06 0.3 0.08-3.34-0.49 8.31-0.08m-91.59-8.45-2.51 0.76-1.21 0.29-2.27 0.1-0.47-0.01 0.5 0.01 2.28-0.11 1.24-0.31 2.55-0.78m-7.21 1.17h-0.01l-1.24-0.32m-9.26-8.88 0.37 0.73 0.73 1.37 0.34 0.57 1.29 2.01 0.62 0.7 1.24 1.23 0.7 0.46 0.06 0.04-0.06-0.03-0.69-0.47-1.24-1.2-0.61-0.69-1.27-1.96-0.33-0.55-0.7-1.33-0.37-0.7-0.8-1.65-0.05-0.11m102.99 5.79-0.71 0.37 0.81-0.45m0.83-0.66-0.25 0.2 0.32-0.28m6.18-11.3-0.62 1.48-1.09 2.45-0.53 1.15-0.94 1.88-0.47 0.87-0.87 1.4-0.43 0.65-0.65 0.76 0.78-0.97 0.43-0.68 0.88-1.45 0.47-0.91 0.97-1.95 0.54-1.19 1.13-2.55 0.44-1.03m-48.14 2.5-1.04-0.4 0.05-0.02m0.92-13.42-0.28 0.63-0.1 0.28-0.02 0.37 0.03 0.16 0.25 0.17 0.15 0.02-0.43 0.01-0.09-0.1-0.08-0.27 0.09-0.27 0.28-0.63 0.24-0.45m103.53-17.27-0.44 4.25-0.24 2.09-0.65 3.89-0.34 1.89-0.85 3.4-0.19 0.58 0.24-1.05 0.64-2.94 0.3-1.64 0.59-3.38 0.25-1.79 0.48-3.61 0.19-1.81 0.09-0.98m-224.1 15.84-0.09-0.39-0.04-0.22m-0.41-2.19-0.05-0.24-0.08-0.42m-1.83-31.55-0.34 4.26-0.14 2.1-0.07 3.96 0.21 5.5 0.14 1.73 0.42 3.68 0.24 1.86 0.57 3.8 0.2 1.29-0.29-1.63-0.39-2.75-0.72-5.46-0.23-2.55-0.21-5.28 0.07-3.88 0.15-2.09 0.35-4.25 0.27-2.22m117.42-18.68-0.15 0.38 0.04 0.62 0.16 0.73 0.15 0.5 0.34 1.1 0.22 0.68 0.5 1.42 0.29 0.82 1.32 3.52 0.82 2.06 1.73 4.27 0.97 2.29 1.19 2.81-0.17-0.4-1.58-3.7-0.89-2.1-1.6-3.96-0.75-1.9-1.2-3.27-0.27-0.76-0.45-1.32-0.21-0.63-0.3-1.03-0.14-0.47-0.14-0.69-0.03-0.59 0.15-0.38-0.18-0.84-0.84-0.97 0.84 0.97m109.13 21.43 0.01 0.06-0.07-0.7m-17.13-14.04 0.31 0.65 0.6 1.4 0.26 0.88 0.49 1.9 0.21 1.13 0.39 2.4 0.16 1.39 0.04 0.4-0.13-0.99-0.17-1.19-0.36-2.03-0.19-0.97-0.39-1.62-0.2-0.77-0.45-1.25-0.22-0.58-0.5-0.92-0.07-0.12m16.73 8.47 0.21 1.91-0.33-2.66m-216.46-11.97-0.07 0.65-0.17 1.42-0.16 0.83-0.34 1.73-0.24 0.93-0.79 4.35-0.16 1.39 0.14-1.29 0.8-4.45 0.23-0.93 0.36-1.73 0.15-0.83 0.18-1.42 0.07-0.65-0.01-0.99-0.22-0.84 0.23 0.84m217.27-9.88 2.23 6.52 0.97 3.41 1.33 5.27 0.63 3.37 0.22 1.91 0.13 1.33-0.14-1.36-0.22-1.9-0.63-3.37-1.32-5.25-0.97-3.4-2.23-6.52-1-2.75m-201.39 16.2-0.68 1.95-1.13 4.48-0.24 1.05 0.17-1 0.54-2.24 0.56-2.17 0.29-0.95 0.61-1.81 0.23-0.58m184.13 2.28 0.05 0.07-0.08-0.1m-9.03-0.85-0.4 0.08 0.44-0.24h0.45m-172.41-1.21-0.12-0.13m172.29-0.92 0.01 0.25 0.14 0.32 0.09 0.14 0.29 0.11h-0.02l-0.29-0.11-0.08-0.14-0.13-0.33-0.01-0.25 0.01-0.23m3.08 0.6-0.17 0.31 0.06-0.3-0.21-0.02 0.15-0.03m-166.08-7.4-0.22 0.32-0.25 0.76-0.09 0.92-0.04-0.29 0.03-0.38 0.12-0.71 0.19-0.32 0.5-0.64 0.09-0.07m-10.52-1.17 0.05-0.19 0.01-0.04m0.11-0.31 0.09-0.25 0.02-0.06m15.15-0.59-1.76 0.8 0.7-0.34 1.17-0.51 2.01-0.87m-16.26-0.83 0.04-0.06-0.98 2.26m36.63-8.94-0.2 0.19-0.2 0.14-1.06 0.68-0.85 0.49-1.9 1.09-1.2 0.65-2.55 1.36-1.44 0.75-0.17 0.09 0.17-0.09 1.44-0.75 2.55-1.36 1.2-0.66 1.9-1.08 0.85-0.49 1.06-0.69 0.2-0.13 0.2-0.19m-1.05 0.17-0.55 0.18-1.65 0.61-0.89 0.34-2.18 0.85-1.14 0.45-2.52 1.01-1.6 0.65 0.08-0.03 4.12-1.7 2.5-0.99 1.04-0.39 1.93-0.72 0.66-0.21 0.6-0.2 0.21-0.05 0.15-0.04m162.21 4.28v0.01l-0.92-2.14m-126.36-16.62 0.1 0.1 0.34 0.55 0.19 0.34 0.3 0.57-0.29-0.43-0.69-0.99-0.32-0.37-0.15-0.15m119.12 1.34-0.84-1.3m-123.51-1.92-0.97-0.09m121.82-2.11-0.01-0.02m-14.37-17.35 2.25 2.34 4.38 4.77 2.02 2.5 3.93 5.09h0.01l-3.94-5.09-2.02-2.5-4.38-4.77-2.25-2.34-4.83-4.45-7.78-6.35 7.77 6.35m-73.73-39.58 0.04 0.19-0.04-0.19z" fill="#1d1513"/>
<path d="m254.16 258.19 1.04 0.61 0.38 0.38 0.33 0.61 0.11 0.27-0.15 0.34-0.13 0.13-0.55-0.02-0.32-0.06-0.87-0.45-0.4-0.25-0.4-0.6 0.1-0.78 0.2-0.2m100.67-11.24-0.78-1.35-0.41-0.75-0.97-1.88-0.5-0.98-1.05-2.22-3.82-8.25-0.06-6.78 0.08 6.78 3.81 8.25 1.05 2.22 0.49 0.98 0.97 1.88 0.41 0.75 0.79 1.35 0.28 0.42 0.5 0.65-0.5-0.65m-213.72-42.36-0.07 2.58-0.02 1.49-0.04 3.13-0.01 1.81-0.01 4.51 0.02 2.69 0.02 0.76-0.01-0.21-0.09-2.24-0.05-4.56-0.01-2.28 0.1-4.47 0.07-2.2 0.14-2.23m204.43-45.65 1.16 1.97 2.2 4.13 1.07 2.07 1.94 4.15 2.47 5.97 0.56 1.48 1.31 2.7 0.31 0.6 0.59 0.95 0.74 0.91 0.41 0.34 0.48 1.04 0.05 1.58-0.08 0.24-0.02 1.17 0.02 0.68 0.14 1.88 0.09 1.01 0.27 2.35 0.55 3.78 0.21 1.29 0.38 3.06 0.18 1.58 0.31 3.34 0.13 1.66 0.19 3.22 0.01 0.32-0.13-2.39-0.12-1.42-0.54-5.85-0.38-2.87-0.38-2.84-0.21-1.34-0.43-2.59-0.22-1.16-0.45-2.2-0.22-0.9-0.45-1.65-0.22-0.57-0.48-1.33-0.42-1.21-0.24-0.71-1.03-3.05-0.49-1.51-2.27-5.98-1.97-4.41-1.14-2.26-2.36-4.55-1.25-2.18-1.97-3.3m-176.37 40.11-0.04 0.07-0.66-1.68m174.09-12.96 0.15 0.56 0.37 1.16 0.29 0.68 2.21 6.53 1.15 4.83 0.09 0.58-0.33-1.29-0.26-0.88-0.6-1.4-0.31-0.65-0.71-0.94-1.19-0.91-0.57-0.26-0.89-0.96-0.39-0.53-0.47-1.27-0.17-0.64 0.03-1.26 0.72-1.52 0.22-0.22 0.41-1.22 0.19-0.72 0.02-0.1m-12.69 8.82 1.4 3.17-0.07-0.04-0.47-0.87-0.97-2.34-0.77-1.91m10.28-11.84-0.19 0.7-0.49 1.55-0.91 2.63-0.31 0.85-0.51 1.46-0.23 0.68-0.35 1.13-0.15 0.53-0.19 0.83-0.07 0.38-0.03 0.57 0.01 0.25 0.13 0.33 0.08 0.14 0.29 0.11 1.48-0.3 0.52-0.2 0.47 0.05-0.14 0.72-0.2 0.32-0.85 0.51-1.5 0.34h-0.5l-1.21 0.64-1.51 1.5 1.05-2.14 2.27-5.06 1.39-3.51 0.57-1.66 1.04-3.19 0.08-0.32m-173.86 4.74-0.33 2.07 0.05 1.1 0.23 2.26 0.33 1.24 0.81 2.57 0.61 1.43 0.18 0.42-0.81-1.16-0.28-0.33-0.57-0.51-0.79-0.43-0.57-0.15-0.76-0.85-0.48-1.94v-0.39l0.2-1 0.13-0.53 0.43-1.21 0.47-1.24 1.38-2.69 0.73-1.31 0.08-0.12m-14.23-8.18-2.73 6.07-1.14 3.08-2.14 6.2-0.83 3.12-0.75 2.91 0.22-1.09 0.16-0.83 0.17-1.42 0.07-0.65v-0.99l-0.23-0.84-0.13-0.13-0.27-0.04-0.14 0.02-0.28 0.25-0.72 1.65-0.12 0.47-0.26 0.76-0.14 0.34-0.27 0.48-0.28 0.42-0.52 0.06-0.24-0.1-0.37-0.93-0.25-2.47v-0.66l0.07-1 0.05-0.44 0.19-0.58 0.11-0.24 0.32-0.21 0.65 0.06 0.41 0.16 1.16-0.22 0.6-0.18 1.25-0.7 0.6-0.39 0.95-0.93 0.64-1.37v-0.18l0.12-0.53 0.07-0.3 0.27-0.75 0.29-0.81 0.95-2.16 0.53-1.15 1.33-2.69 0.7-1.38 0.7-1.32m19.5 17.38 0.06 1.47 0.01 0.71-0.11 0.85 0.1-0.86v-0.71l-0.06-1.47m129.12-11.54-0.3 0.55-0.65 0.69-0.51 0.48-1.12 1.02-0.7 0.6-1.47 1.24-0.82 0.67-2.34 1.93-1.36 1.2-0.55 0.52-0.98 0.95-0.31 0.35-0.47 0.59v0.12l0.39 0.17 0.62 0.1 0.49 0.05 1.07 0.1 0.68 0.05 1.46 0.08 0.86 0.04 1.69 0.07-2.34-0.02-0.97-0.01-1.7-0.02-0.8-0.01-1.34-0.01-0.62-0.01-0.92-0.02-0.84-0.02-0.77-0.03-1.27 0.17-0.59 0.13-0.71 0.38 0.6-0.82 0.76-0.7 1.69-1.43 1.41-1.11 0.81-0.59 3.42-2.46 1.72-1.15 1.7-1.12 0.77-0.49 1.49-0.92 0.62-0.36 1.13-0.62 0.38-0.17 0.62-0.23m41.41-6.8 0.29 0.96 0.48 1.94 0.09 1 0.07 2-0.12 1.01-0.34 2.04-0.37 1.11 0.13-1.54 0.14-4.12v-1.73l-0.65-3.05-0.19-0.61m-167.7 5.51-1.35 0.61-0.58 0.27-1.09 0.53-0.46 0.23-1.62 0.86-0.54 0.37-0.18 0.12 0.12-0.13 1.02-0.8 0.13-0.06 0.76-0.35 0.46-0.21 1.37-0.6 0.75-0.33 1.68-0.72m163.38-4.49 0.49 0.94 0.57 1.79 0.21 0.9v0.59l-0.24-1.54-0.59-1.71-0.42-0.86-0.28-0.51m-96.69-5.9 0.35 0.87-0.58-1.36m81.02-3.74 1.76 0.74 2.9 1.27 1.36 0.61 2.21 1.05 1.03 0.51 0.28 0.16-0.58-0.28-1.5-0.7-0.85-0.4-3.68-1.66-2.12-0.92-4.34-1.86m-150.49-10.43-4.18 5.21-1.92 2.75-2.99 4.44 0.56-0.92 1.65-2.59 2.24-3.24 1.7-2.29 4.03-4.7 0.48-0.54m67.17 9.78 0.53 0.68 0.96 1.49 0.58 1.05-0.34-0.59-0.38-0.63-0.75-1.06-0.77-1-1.09-0.95m-1.26-0.92 0.3 0.21-1.69-0.93m-17.9-9.2-0.12 1.05-0.22 2.04-0.09 0.9-0.17 1.72-0.07 0.73-0.11 1.36-0.04 0.52-0.05 0.94v0.29l0.01 0.45h-0.02l-0.03-0.04-0.01-0.45 0.01-0.29 0.06-0.93 0.04-0.52 0.12-1.35 0.07-0.73 0.17-1.72 0.1-0.9 0.23-2.03 0.11-1.05 0.28-2.29 0.95-7.58-0.95 7.58m7.84 0.24-0.17 1.32-0.07 0.61-0.1 0.96-0.04 0.44-0.02 0.64-0.01 0.58 0.2 0.41 0.62-0.13 0.11-0.07 0.26-0.43 0.14-0.26 0.26-0.72 0.1-0.3-0.06 0.33-0.09 0.47-0.14 0.86-0.05 0.29-0.31 2.37-0.01 0.99 0.12 0.28 0.33 0.43 0.34 0.08 0.78 0.1h0.6l0.99 0.15-1.43-0.07-1.06 0.01-2.21 0.39-3.56 1.15-1.12 0.44-0.38 0.12 0.89-0.42 1.8-1.03 0.85-0.76 0.31-0.52 0.57-1.15 0.23-0.83 0.45-1.85 0.25-1.29 0.52-2.94 0.14-0.91m5.81 9.96 0.94 0.3-1.25-0.34-0.08-0.02m40.82-26.99-0.04 0.54-0.28 0.66-0.26 0.47-0.6 1.02-0.4 0.63-0.89 1.35-0.54 0.77-1.15 1.62-0.66 0.9-1.38 1.86-0.77 1.01-3.27 4.21-1.87 2.31-1.34 1.64-0.56 0.69-1.07 1.29-0.44 0.52-0.82 0.97-0.34 0.38-0.61 0.68-0.24 0.24-0.43 0.42-0.16 0.12-0.28 0.18-0.09 0.02-0.24-0.14v-0.31l0.2-0.67 0.32-0.67 0.24-0.42 0.54-0.91 0.34-0.53 0.72-1.1 0.42-0.61 1.81-2.6 1.06-1.43 2.18-2.92 1.14-1.46 2.28-2.89 1.09-1.33 2.12-2.53 0.9-1.01 0.87-0.96 0.38-0.39 0.72-0.73 0.29-0.26 0.54-0.45 0.19-0.11 0.31-0.14m-98.51 20.25 0.45-0.5 0.7-0.7m148.2-11.53 1.76 1.43 0.92 0.78 2.08 1.9 1.07 1 2.28 2.24 1.16 1.15 1.47 1.53-1.48-1.53-1.15-1.15-2.28-2.24-1.07-1-2.08-1.9-0.92-0.78-1.76-1.43m-91.22-9.69-0.8 3.85-0.41 1.99-1.22 5.97-0.77 3.82-0.33 1.7-0.16 0.84 0.5-2.92 0.32-1.74 0.73-3.74 0.77-3.79 1.39-6.11m5.86-23.02h-0.62l-1.21 0.11-0.57 0.09-0.97 0.36-0.46 0.22-0.78 0.7-0.37 0.4-0.63 1.13-0.3 0.63-0.52 1.65-0.25 0.9-0.46 2.27-0.23 1.23-0.44 2.98-0.7 5.37-0.48 3.97-1.04 8.2-0.06 0.47 0.48-4.12 0.38-3.29 0.18-1.49 0.34-2.88 0.17-1.29 0.32-2.49 0.16-1.12 0.31-2.13 0.15-0.94 0.3-1.8 0.15-0.79 0.3-1.5 0.16-0.65 0.31-1.22 0.16-0.52 0.67-1.84 0.39-0.61 0.8-1.04 0.48-0.3 1.02-0.46 0.6-0.1 1.29-0.11h0.77m76.47 10.09 0.29 2.28 0.1 1.2 0.03 2.77-0.02 1.44-0.23 3.3-0.6 5.6 0.6-5.6 0.23-3.3 0.02-1.44-0.03-2.77-0.1-1.2-0.29-2.28m4.86 3.37-0.01 0.8-0.06-1.26m-0.85-4.84 0.01 0.04-0.04-0.11m-2.03-4.42 0.75 1.44 0.52 1.23-0.67-1.4-0.49-0.88-0.79-1.21m-3.76 1.54 0.06 0.08-0.06-0.08m-60.97-15.32 2.87 0.29 1.3 0.14 2.47 0.28 0.96 0.12 7.66 1 4.68 0.61 2.13 0.29 4.15 0.54 1.88 0.25 3.65 0.49 1.65 0.23 3.19 0.43 1.43 0.2 2.76 0.39 1.24 0.18 2.37 0.35 1.05 0.16 1.27 0.2-3.66-0.55-1.18-0.17-2.57-0.35-4.2-0.55-1.54-0.2-2.83-0.36-1.38-0.17-2.51-0.32-1.21-0.15-2.21-0.26-1.06-0.13-1.93-0.22-1.85-0.21-2.93-0.28-1.35-0.12-2.03-0.1-0.92-0.03-1.29 0.07-0.56 0.06-0.69 0.24-0.28 0.14-0.23 0.41-0.01 0.78 0.04 0.19 0.23 0.34 0.16 0.16 0.55 0.32 0.32 0.15 0.97 0.31 0.54 0.15 1.48 0.33 0.82 0.16 2.1 0.36 1.13 0.18 2.83 0.41 1.51 0.21 3.64 0.49 6.5 0.84 3.1 0.39 5.89 0.82 1.43 0.2 2.69 0.41 1.31 0.2 2.41 0.38 1.17 0.19 2.06 0.36 0.98 0.17 1.65 0.32 0.76 0.15 1.16 0.27 1.11 0.33 0.85 0.35 1.45 0.88 0.69 0.47 1.12 1.13-1.12-1.13-0.69-0.47-1.45-0.88-0.85-0.35-1.47-0.4-1.6-0.33-1.08-0.2-2.34-0.4-1.4-0.23-2.95-0.47-1.66-0.25-3.44-0.51-1.87-0.26-3.82-0.54-2.01-0.28-8.28-1.11-4.26-0.54-8.51-1.07-4.02-0.47-3.97-0.47-1.86-0.21-3.65-0.4-1.66-0.17-3.21-0.33-1.4-0.13-2.65-0.24-1.08-0.08-1.98-0.13-0.7-0.03-1.02-0.01 0.46-0.05 2.28 0.02 0.63 0.01 1.47 0.08 2.57 0.17 1.03 0.08 1.71 0.11 0.8 0.05 1.29 0.07 0.61 0.02h0.94 0.43l0.65-0.07 0.58-0.09 0.5-0.42 0.21-1.05v-0.28l-0.18-0.51-0.13-0.24-0.44-0.42-0.26-0.2-0.71-0.35-0.39-0.16-0.4-0.11m-0.96 11.88 2.71 0.3 2.69 0.3 1.23 0.15 2.38 0.29 0.98 0.13 1.79 0.26 0.59 0.1 0.53 0.1 0.18 0.05 0.27 0.08 0.04 0.03 0.27 0.43-0.05 0.25-0.15 0.11-0.37 0.2-0.3 0.08-0.7 0.16-0.48 0.06-1.04 0.11-0.65 0.04-1.39 0.06-0.83 0.02-1.76 0.02h-1.01l-2.13-0.02-1.21-0.02-3.53-0.06-1.93-0.02-0.78 0.01-1.4 0.02 2.87-0.47 0.91-0.12 1.67-0.29 0.79-0.14 1.33-0.3 0.6-0.14 0.82-0.27 0.53-0.35v-0.09l-0.37-0.21-0.24-0.1-0.79-0.22-0.43-0.11-1.11-0.22-0.59-0.11-1.34-0.2-0.49-0.07m-22.25 1.39-0.46 1.56 0.05-0.22 0.44-1.58 0.19-0.44m15.51-1.27 0.21 0.02-1.31-0.06m60.23-4.57 1.71 0.28 0.74 0.14 1.43 0.26 0.61 0.12 2.24 0.48 0.84 0.22 1.52 0.45 0.59 0.23 1.08 0.47 0.48 0.25 0.15 0.12-1.79-0.74-1.07-0.39-2.65-0.71-1.42-0.34-3.46-0.66-1.52-0.27m-43.64-4.39-0.65 0.43-0.44 1.04v0.45l0.41 0.46 1.09-0.02 0.41-0.16 0.65-0.51 0.27-0.26 0.17-0.54v-0.24l-0.44-0.39-1.06-0.26m-22.65 1.93 0.28-0.11 0.7-0.24 1.49-0.24m1.47-4.26-1.89 0.21-1.21 0.19-2.27 0.65-1.1 0.37-2.02 0.99-0.97 0.54-0.37 0.28 0.98-0.77 1.32-0.67 2.5-1.11 1.58-0.46 0.92-0.1 1.97-0.14m40.21 126.28 0.2-0.31 0.85-1.42 0.52-0.96 1.08-2.06 0.59-1.18 1.19-2.43 0.45-0.98-0.43 0.94-1.19 2.44-0.59 1.19-1.08 2.06-0.52 0.97-0.86 1.42-0.19 0.31-0.33 0.44-0.38 0.38 0.37-0.37m-55.15-90.59 0.64-4.96 0.15-1.19 0.29-2.19 0.13-1.06 0.25-1.88 0.11-0.9 0.2-1.5 0.22-1.76 0.25-2.02 0.29-1.24-0.4 2.11-0.16 1.32-0.22 1.72-0.19 1.48-0.12 0.89-0.24 1.86-0.13 1.05-0.28 2.18-0.16 1.18-0.64 4.93-0.34 2.66-0.7 5.39 0.7-5.41z" fill="#478ab8"/>
<path d="m321.4 282.4 2.04 0.16 0.86 0.06 1.62 0.11 0.66 0.03 1.25 0.06h0.5 0.92l0.36-0.02 0.64-0.06-0.15 0.03-0.75 0.05-0.41 0.02-1.06-0.01-0.57-0.01-1.42-0.08-0.77-0.04-1.83-0.14-0.98-0.08-1.41-0.12m9.47 0.36-0.11 0.02 0.13-0.02m0.8-0.25-0.39 0.12 0.4-0.14m-9.18-3.22-0.6 0.24-1.29 0.38-0.9 0.07-0.96 0.05-0.57 0.02-1.21 0.01h-0.73l-2.52 0.06-1.26 0.09-0.43 0.07-0.71 0.15-0.15 0.09-0.18 0.19 0.1 0.11 0.34 0.22 0.36 0.11 0.85 0.24 0.6 0.11 1.34 0.23 0.84 0.11 0.66 0.08-1.94-0.19-5.28-0.63-1.27-0.15-2.3-0.32-2.81-0.42-0.6-0.1-0.93-0.17-0.41-0.08-0.52-0.14-0.21-0.06-0.07-0.1 0.02-0.05 0.41-0.08 0.27-0.04 0.94-0.05 0.53-0.03 1.49-0.04 0.82-0.02 2.09-0.03 3.85-0.04 12.61-0.12m7.53-1.97 0.53 1.23-0.51-1.19-1.91-4.44-1.76 2.14 1.73-2.21z" fill="#c5ced3"/>
<path d="m0 250v-250h250 250v250 250h-250-250v-250m199.09 190.95 0.39-0.21 0.55-0.39 0.24-0.19 0.27-0.35 0.21-0.33-0.29-0.43-0.24-0.16-1.02 0.01-2.1 0.7-0.83 0.41-1.64 0.37-0.81 0.1-1.6-0.26-0.8-0.21-1.56-0.88-2.28-2.03-0.72-0.8-0.81-1.74-0.31-0.87-0.07-1.78 0.05-0.88 0.57-1.68 0.35-0.82 1.07-1.45 0.59-0.68 1.47-1.09 0.77-0.49 1.75-0.58 0.89-0.22 1.91 0.05 2.92 0.93 0.62 0.34 0.94 0.17 0.93-0.51 0.12-0.19-0.05-0.39-0.07-0.19-0.37-0.37-0.45-0.37-1.59-0.6-0.87-0.27-2.07-0.3-3.1 0.07-1.06 0.17-1.86 0.7-0.89 0.41-1.48 1.11-0.69 0.6-1.08 1.41-0.48 0.73-0.64 1.62-0.26 0.83-0.17 1.73-0.02 0.87 0.34 1.74 0.23 0.86 0.87 1.65 1.93 2.28 0.86 0.77 1.99 1.11 1.03 0.47 2.16 0.49 1.09 0.16 2.15-0.16 1.06-0.16m25.87-2.28 0.22-0.57 0.46-0.78 0.26-0.34 0.8-0.41 0.46-0.17 1.44-0.16 0.42-0.03 1-0.03 1.81-0.01h0.68l1.15 0.01 0.54 0.01 0.88 0.05 0.82 0.05 1.03 0.26 0.44 0.17 0.5 0.58 0.5 1.37 0.17 0.69 0.7 1.08 1.21 0.73h0.26l0.17-0.52 0.02-0.35-0.35-1.31-0.12-0.39-0.34-0.93-0.19-0.49-0.48-1.17-0.26-0.62-0.63-1.42-1.1-2.42-0.62-1.33-1.12-2.44-0.53-1.17-0.89-1.97-0.4-0.91-0.56-1.28-0.11-0.27-0.15-0.36-0.09-0.27v-0.11l-0.31-0.16-0.76-0.11h-0.05l-0.2 0.2-0.12 0.13-0.31 0.44-0.33 0.49-0.91 1.54-0.49 0.85-1.12 2.06-0.57 1.07-1.19 2.32-0.6 1.16-1.13 2.3-0.54 1.13-0.94 2.02-0.43 0.96-0.61 1.48-0.39 1.33v0.4l0.36 0.26 0.21 0.06 0.63-0.31 0.32-0.22 0.67-0.74 0.32-0.41m40.49-1.52v-0.69l0.09-0.94 0.08-0.41 0.37-0.49 0.23-0.2 0.8-0.19 1.86-0.08h0.67l1.1 0.14 0.51 0.1 0.88 0.38 0.43 0.23 0.78 0.7 1.2 1.45 0.37 0.51 0.66 0.82 0.33 0.38 0.56 0.55 0.27 0.24 0.43 0.29 0.2 0.11 0.29 0.02 0.12-0.02 0.1-0.23 0.03-0.15-0.1-0.49-0.08-0.27-0.32-0.73-0.77-1.38-0.52-0.84-0.64-1.13-0.26-0.5-0.14-0.69-0.01-0.32 0.37-0.58 1.12-1.1 0.58-0.52 0.77-1.38 0.32-0.73 0.24-1.63 0.06-0.82-0.29-1.65-1.06-2.25-0.25-0.34-0.71-0.55-0.4-0.25-1.08-0.4-0.59-0.18-1.54-0.28-2.93-0.31-6.13-0.44v10.12 1.52l0.07 2.63 0.05 1.23 0.15 1.96 0.09 0.88 0.23 1.17 0.41 0.73h0.14l0.25-0.24 0.12-0.15 0.2-0.49 0.18-0.55m51.19-1.49 0.94-0.95 1.23-2.21 0.5-1.15 0.34-2.43 0.06-1.22-0.56-2.39-1.87-3.27-0.48-0.56-0.94-0.82-0.5-0.37-1.18-0.52-0.65-0.23-1.73-0.32-3.52-0.37-6.72-0.54v10.13 10.14h6.08 1.34l1.97-0.09 0.89-0.07 1.34-0.33 0.63-0.2 1.09-0.68 0.54-0.4m-7.78-55.76 1.42-0.51 2.41-1.2 1.11-0.62 1.65-1.31 0.71-0.65 0.69-1.24 0.11-0.3v-0.55l-0.33-0.75-0.39-0.46-0.83-0.54-0.43-0.21-1.03-0.03-0.56 0.05-1.34 0.5-2.52 1.35-0.84 0.51-1.85 0.72-0.94 0.31-1.98 0.32-1 0.11-2.04-0.06-1.03-0.08-2.03-0.43-1-0.25-1.95-0.77-0.96-0.43-1.78-1.09-0.87-0.59-1.56-1.4-1.99-2.43-0.33-0.5-0.54-1.21-0.24-0.63-0.38-1.42-0.33-1.46-0.16-3.23v-1.62l0.5-3.13 0.17-0.75 0.45-1.38 0.87-1.82 0.52-0.84 1.31-1.48 0.7-0.7 1.63-1.19 0.85-0.56 1.88-0.89 0.96-0.41 2.05-0.57 1.04-0.25 2.14-0.23 1.08-0.08 2.16 0.12 1.08 0.11 2.1 0.49 3.01 1.18 0.91 0.46 1.27 0.58 0.57 0.24 0.83 0.15 0.38 0.03 0.65-0.26 1.08-0.84 0.57-0.51 0.56-0.88 0.18-0.42-0.3-0.8-0.26-0.41-1.25-0.87-0.37-0.23-0.95-0.49-1.71-0.82-0.69-0.31-1.58-0.51-0.81-0.24-1.78-0.35-1.82-0.31-3.92-0.16-1.97-0.01-3.77 0.46-0.9 0.16-1.68 0.42-2.25 0.81-1.08 0.49-2.17 1.47-1.07 0.8-2.01 1.93-0.96 0.99-1.61 2.15-1.74 3.23-0.14 0.36-0.25 1.09-0.12 0.59-0.2 1.44-0.3 4.78v1.86l0.67 3.49 0.43 1.7 1.46 3.1 0.81 1.49 2.13 2.63 1.13 1.25 2.66 2.08 1.38 0.95 3.08 1.43 1.58 0.63 3.36 0.7 1.71 0.25 3.53-0.11 1.78-0.17m-181.37-0.73 0.01-0.02 0.03-0.32 0.02-0.2 0.04-0.66 0.03-0.37 0.06-0.97 0.03-0.52 0.06-1.23 0.07-1.29 0.15-3.21 0.25-5.46 0.6-14 7 11.49 0.96 1.58 1.88 2.9 0.91 1.39 1.64 2.32 0.38 0.54 0.69 0.91 0.34 0.43 0.57 0.68 0.26 0.31 0.43 0.42 0.44 0.29 0.12 0.02 0.34-0.15 0.18-0.1 0.46-0.41 0.24-0.24 0.57-0.66 0.3-0.36 0.68-0.92 0.36-0.49 0.79-1.18 0.42-0.61 0.9-1.43 0.47-0.74 1.02-1.67 1.65-2.79 0.96-1.65 1.82-3.01 0.87-1.44 1.51-2.38 0.36-0.55 0.61-0.92 0.29-0.44 0.49-0.68 0.22-0.3 0.33-0.4 0.29-0.25h0.05l0.1 0.3 0.05 0.19 0.09 0.65 0.05 0.37 0.08 0.97 0.04 0.52 0.07 1.25 0.07 1.32 0.09 3.29 0.06 5.63v14.5h3 3v-21-21h-2.78-0.63l-1.11 0.42-0.29 0.16-0.61 0.54-0.32 0.31-0.73 0.88-0.38 0.5-0.91 1.31-0.48 0.72-1.15 1.83-0.61 0.98-1.44 2.42-2.59 4.38-0.79 1.35-1.4 2.35-0.67 1.12-1.18 1.92-0.56 0.9-0.98 1.52-0.46 0.71-0.8 1.13-0.37 0.52-0.63 0.77-0.29 0.34-0.47 0.44-0.22 0.18-0.35 0.13-0.38-0.13-0.07-0.08-0.3-0.43-0.18-0.25-0.48-0.75-0.26-0.41-0.64-1.02-0.34-0.54-0.78-1.26-0.8-1.31-1.9-3.16-3.11-5.24-0.82-1.39-1.41-2.37-0.68-1.12-1.16-1.88-0.55-0.88-0.95-1.44-0.45-0.67-0.77-1.04-0.37-0.49-0.64-0.71-0.31-0.32-0.55-0.43-1.51-0.51h-2.39v21 21h2.5 0.69l1.12-0.07 0.48-0.05m58.21-20.88v-21h-3-3v21 21h3 3v-21m19 15v-6h4.92 1.35l2.56-0.17 0.58-0.05 0.95-0.13 0.96-0.22 0.25-0.1 0.69 0.25 0.38 0.19 0.95 0.84 0.51 0.5 1.22 1.45 2.17 2.87 0.49 0.69 0.86 1.18 0.42 0.55 0.73 0.93 0.71 0.88 1.15 1.12 0.55 0.48 1.02 0.49 1.67 0.25h0.8l1.25-0.17 0.27-0.05 0.36-0.13 0.23-0.22v-0.08l-0.36-0.64-0.22-0.39-0.74-1.15-0.41-0.62-1.03-1.51-1.74-2.49-4.51-6.31 2.55-1.68 0.77-0.5 1.35-1.23 0.64-0.64 1.07-1.47 0.51-0.75 0.79-1.64 0.35-0.84 0.49-1.75 0.21-0.89 0.18-1.8 0.05-0.9-0.15-1.8-0.12-0.89-0.5-1.72-1.14-2.44-0.44-0.72-0.87-1.24-0.43-0.59-0.93-0.97-0.47-0.46-1.08-0.74-0.56-0.35-1.32-0.55-0.7-0.25-1.65-0.38-0.88-0.18-2.08-0.26-1.11-0.12-2.61-0.16-4.61-0.18-12.3-0.36v21.11 21.1h3 3v-6m39.72 1 2.11-5h11.41 11.42l2.34 5 0.5 1.08 0.82 1.52 0.39 0.67 0.73 0.85 0.37 0.35 0.84 0.35 1.59 0.18h0.45l0.72-0.01 0.33-0.01 0.46-0.17 0.19-0.12 0.14-0.5 0.02-0.3-0.22-0.99-0.16-0.58-0.62-1.65-0.37-0.92-1.08-2.48-0.3-0.68-0.7-1.55-0.36-0.8-0.83-1.81-0.42-0.94-0.96-2.09-1.6-3.49-0.96-2.09-1.73-3.91-0.81-1.87-1.33-3.2-0.3-0.74-0.51-1.28-0.23-0.6-0.35-0.99-0.16-0.45-0.18-0.64-0.08-0.52 0.05-0.14 0.35 0.3 0.21 0.24 0.62 0.98 0.33 0.56 0.8 1.51 1.32 2.71 0.46 1 0.88 1.81 0.43 0.86 0.76 1.43 0.36 0.65 0.56 0.9 0.51 0.57h0.04l0.26-0.38 0.15-0.25 0.45-0.83 0.25-0.47 0.63-1.24 0.34-0.67 0.78-1.6 0.41-0.84 0.91-1.9 0.47-0.99 1.01-2.16 3.3-7.19 8.37-18.52-3.82-8.23-0.52-1.13-1.34-2.83-0.7-1.48-1.55-3.23-0.78-1.63-1.58-3.23-2.18-4.43-0.66-1.34-1.21-2.48-0.58-1.19-0.96-2.02-0.44-0.93-0.6-1.33-0.12-0.28-0.16-0.39-0.1-0.3v-0.04l0.72-0.07 0.47-0.03 1.59-0.05 0.89-0.03 2.37-0.04 1.26-0.01 3.04-0.03 1.6-0.01 3.62-0.02h1.88 4.1 2.11l4.49 0.02 7.08 0.04 35.21 0.26 9.96 22.5h18.81 2.58l4.72-0.02 1.12-0.01 2.07-0.02 1-0.01 1.79-0.03 0.85-0.02 1.45-0.03 0.68-0.01 1.06-0.04 0.47-0.02 0.63-0.04 0.38-0.06v-0.02l-0.1-0.27-0.07-0.16-0.22-0.54-0.26-0.59-0.82-1.85-0.45-1.02-1.13-2.53-1.94-4.27-4.99-10.94 7.24-0.57 0.83-0.07 1.37-0.11 0.63-0.05 0.98-0.09 0.44-0.04 0.6-0.07 0.25-0.04 0.24-0.06 0.08-0.03-0.11-0.05-0.1-0.03-0.44-0.05-0.27-0.03-0.76-0.05-1.5-0.1-1.35-0.08-2.19-0.14-1.03-0.07-1.67-0.23-0.78-0.14-1.29-0.46-0.61-0.27-1.06-0.81-0.52-0.47-0.97-1.31-0.49-0.73-1.04-1.93-0.54-1.06-1.25-2.69-2.28-5.04-6.24-13.87 1.95-5.63 0.61-1.78 1.06-3.31 0.5-1.62 0.84-3.11 0.79-3.07 1.01-6.06 0.21-1.55 0.29-3.22 0.13-1.65 0.15-3.52 0.06-1.81 0.02-3.93-0.1-6.5-0.05-1.86-0.11-3.23-0.05-1.54-0.12-2.7-0.07-1.29-0.16-2.28-0.08-1.09-0.2-1.96-0.22-1.91-0.63-3.37-1.33-5.27-0.97-3.41-2.23-6.52-1.17-3.21-2.65-6.14-1.38-3.03-3.06-5.77-1.59-2.85-3.5-5.42-1.8-2.67-3.93-5.09-2.02-2.5-4.38-4.77-2.25-2.34-4.84-4.45-7.77-6.35-5.95-4.48 0.07-6.08 0.02-1.96-0.55-3.58-0.37-1.72-1.31-3.05-0.75-1.44-2.02-2.43-3.8-2.86-0.48-0.25-1.08-0.47-0.59-0.23-1.52-0.45-0.84-0.22-2.24-0.48-0.61-0.12-1.43-0.26-0.74-0.14-1.71-0.28-0.89-0.15-2.02-0.31-1.05-0.16-2.37-0.35-1.24-0.18-2.76-0.39-1.43-0.2-3.19-0.43-1.65-0.23-3.65-0.49-1.88-0.25-4.15-0.54-2.13-0.29-4.68-0.61-7.66-1-0.96-0.12-2.47-0.28-1.3-0.14-2.87-0.29-1.45-0.13-2.92-0.26-4.06-0.32-1-0.07-1.71-0.1-0.81-0.05-1.39-0.04-1.33-0.04-1.97 0.14-0.92 0.1-1.58 0.46-2.5 1.11-1.32 0.67-2.33 1.84-1.11 0.99-1.85 2.37-0.86 1.24-1.26 2.76-1.15 4.45-0.63 4.73-6.74 2.57-3.41 1.31-6.79 3.35-3.38 1.78-6.61 4.21-3.27 2.2-6.31 4.94-3.1 2.56-5.88 5.56-2.87 2.85-5.32 6.05-2.58 3.08-4.65 6.42-2.23 3.25-3.84 6.66-4.73 10.14-0.74 1.9-1.38 4.1-0.67 2.09-1.21 4.39-1.18 4.44-1.76 9.21-0.39 2.29-0.6 4.48-0.27 2.22-0.35 4.25-0.15 2.09-0.07 3.88 0.21 5.28 0.23 2.55 0.72 5.46 0.39 2.75 0.97 5.42 0.5 2.65 1.11 4.82 0.28 1.14 0.57 2.07 0.84 2.71 1.96 5.66-6.37 14.87-0.44 1.03-0.79 1.86-0.39 0.9-0.7 1.62-0.68 1.56-1.15 2.47-0.55 1.14-1 1.73-0.5 0.79-0.99 1.13-0.51 0.5-1.12 0.66-0.59 0.29-1.39 0.35-0.75 0.14-1.8 0.16-3.33 0.18-5.5 0.28 7.19 0.57 7.2 0.57-4.86 11.25-4.87 11.25h19.29 19.28l4.84-11.51 4.85-11.52 31.95 0.27 31.96 0.26 25.32 53-3.83 0.31-1.05 0.08-1.65 0.21-0.34 0.05-0.48 0.1-0.3 0.13v0.01l-0.19 0.46-0.13 0.29-0.42 0.97-0.24 0.54-0.63 1.42-0.34 0.76-0.81 1.81-0.43 0.95-0.97 2.14-0.5 1.11-1.09 2.43-3.66 8.05-9.4 20.68h3.21 0.72l1.06-0.15 0.49-0.11 0.76-0.54 0.36-0.35 0.7-1.16 0.36-0.68m115.15 0.49v-2.5h-11-1.22l-2.06-0.01-0.97-0.01-1.6-0.03-0.75-0.03-1.19-0.06-0.55-0.04-0.84-0.11-0.38-0.06-0.56-0.16-0.24-0.09-0.32-0.22-0.37-0.93v-0.12l-0.01-0.52v-0.3-0.86-0.46-1.14-0.6-1.39l0.01-1.44 0.01-3.44 0.04-5.63 0.01-2.2v-3.68l-0.01-1.73-0.06-2.83-0.03-1.32-0.15-2.09-0.08-0.96-0.25-1.46-0.14-0.66-0.38-0.93-0.21-0.42-0.53-0.52-0.28-0.22-0.71-0.22-1.29-0.11h-2.89v21 21h14.5 14.5v-2.5m38 0v-2.5h-11.93-1.67-2.73l-1.27-0.01-1.98-0.06-0.91-0.05-1.36-0.21-0.61-0.12-0.84-0.42-0.36-0.25-0.43-0.7-0.17-0.39-0.13-1.06-0.03-0.58 0.07-1.49 0.2-2.8 0.34-4.86h7.28 1.34l2.32-0.04 1.1-0.02 1.87-0.1 0.89-0.06 1.47-0.17 0.68-0.09 1.11-0.25 0.51-0.14 0.78-0.34 0.36-0.18 0.49-0.44 0.61-1.76v-0.57l-0.2-0.77-0.09-0.16-0.34-0.27-0.19-0.12-0.6-0.18-0.35-0.08-0.95-0.13-0.52-0.05-1.38-0.09-0.75-0.04-1.88-0.07-3.47-0.1-10.72-0.28 0.16-5.5 0.05-1.51 0.08-2.59 0.02-0.57 0.04-0.85 0.03-0.73 0.01-0.05 0.24-0.1 0.16-0.05 0.52-0.09 0.59-0.09 1.9-0.15 1.05-0.07 2.62-0.09 4.47-0.06h11.5v-2.5-2.5h-15-15v21 21h15.5 15.5v-2.5m-161.9 47.77 0.56-1.3 0.99-2.16 0.22-0.47 0.35-0.68 0.32-0.53 0.04-0.05 0.25 0.31 0.15 0.2 0.41 0.71 0.43 0.78 1.08 2.22 0.54 1.14 0.91 2.14 0.2 0.49 0.27 0.77 0.18 0.74v0.06l-0.35 0.1-0.23 0.05-0.73 0.09-3.15 0.12h-4.47l2.03-4.73m35.9-1.27v-5h3.93 1.06l1.84 0.36 0.86 0.23 1.37 0.78 0.62 0.44 0.81 1.14 0.51 2.05v0.75l-0.51 1.3-0.33 0.61-1.1 0.97-0.62 0.43-1.61 0.58-2.9 0.36h-3.93v-5m38 2.87v-8.12l5.19 0.49 0.94 0.09 1.56 0.27 0.73 0.14 1.19 0.4 0.55 0.22 0.91 0.56 1.12 1.06 0.6 0.74 0.73 1.68 0.29 0.86 0.11 1.81-0.03 0.91-0.51 1.81-1.45 2.58-0.44 0.55-0.81 0.79-0.41 0.35-0.94 0.45-0.51 0.19-1.3 0.2-2.59 0.1h-4.93v-8.13m-104-74.5v-9.63l7.92 0.46 1.25 0.07 2.27 0.24 1.09 0.13 1.89 0.34 0.89 0.18 1.45 0.43 1.61 0.73 0.63 0.42 0.99 1.08 0.45 0.57 0.63 1.33 0.27 0.69 0.29 1.49 0.09 0.75-0.05 1.54-0.07 0.77-0.38 1.51-0.23 0.74-0.71 1.36-0.39 0.66-1.02 1.14-1.87 1.34-0.34 0.17-1.2 0.32-0.67 0.15-1.69 0.25-5.85 0.39-7.25 0.01v-9.63m45 11.72v-0.16l0.3-0.96 0.19-0.56 0.61-1.59 0.33-0.86 0.82-1.99 0.42-1.03 0.93-2.16 0.46-1.08 0.93-2.09 0.45-1.02 0.83-1.79 0.4-0.83 0.63-1.26 0.62-1.02 0.06-0.06 0.19 0.1 0.12 0.09 0.29 0.35 0.31 0.41 0.84 1.44 0.45 0.8 1.02 2 0.51 1.04 1.06 2.28 0.53 1.15 0.97 2.27 0.47 1.11 0.76 1.99 0.35 0.93 0.42 1.42 0.08 0.31 0.07 0.46-0.04 0.42-0.09 0.14-0.82 0.22-0.49 0.1-1.45 0.15-0.79 0.07-1.85 0.07-0.95 0.03h-2.01-1l-1.93-0.07-0.93-0.04-1.61-0.13-0.74-0.08-1.04-0.2-0.43-0.11m-73.25-87.27v-0.21l0.14-0.66 0.08-0.36 0.28-0.89 0.31-0.93 0.85-2.11 0.44-1.03 0.86-1.7 0.2-0.37 0.33-0.5 0.37-0.32h0.09l0.38 0.28 0.22 0.17 0.58 0.58 2.16 2.47 0.67 0.84 1.04 1.13 0.52 0.48 1.11 0.57 0.62 0.23 1.72 0.2 0.49 0.04 1.19 0.04 2.14 0.03 1.17 0.01 1.71 0.08 0.76 0.05 0.92 0.15 0.36 0.07 0.18 0.2v0.1l-0.53 0.22-0.35 0.12-1.2 0.25-0.67 0.13-1.82 0.25-0.98 0.13-2.39 0.25-4.2 0.35-1.63 0.12-2.65 0.12-1.22 0.05-1.83-0.02-0.81-0.03-1.01-0.17-0.4-0.1m148.63-0.3-1.08-0.09-1.81-0.22-0.84-0.11-1.34-0.23-0.6-0.11-0.85-0.24-0.36-0.11-0.34-0.22-0.1-0.11 0.18-0.19 0.15-0.09 0.71-0.15 0.43-0.07 1.26-0.09 2.52-0.06h0.73l1.21-0.01 0.57-0.02 0.96-0.05 0.9-0.07 1.29-0.38 0.6-0.24 1.04-0.86 1.83-2.05 3.04-3.69 1.91 4.44 0.52 1.22 0.7 2.13 0.13 0.47 0.14 0.72-0.02 0.64-0.11 0.2-0.71 0.25-0.24 0.04-0.64 0.06-0.36 0.02h-0.92-0.5l-1.25-0.06-0.66-0.03-1.62-0.11-0.86-0.06-2.04-0.16-1.07-0.09m-119.43-12.6-0.7-0.46-1.24-1.23-0.62-0.7-1.29-2.01-0.34-0.57-0.73-1.37-0.37-0.73-0.83-1.71-0.43-0.9-0.96-2.12-1.62-3.68-5.72-13.19 4.14-9.77 0.57-1.34 1.1-2.53 0.53-1.21 0.96-2.09 0.45-0.97 0.69-1.42 0.4-0.75 0.24-0.38 0.06-0.06 0.2 0.09 0.12 0.08 0.32 0.36 0.35 0.42 0.97 1.52 0.52 0.86 1.21 2.26 1.98 3.97 0.34 0.72 0.78 1.66 0.41 0.86 0.9 1.9 0.92 1.94 2.06 4.33 1.04 2.2 2.11 4.43 2.95 6.19 6.6 13.8-5.64 2.56-2.55 0.78-1.24 0.31-2.28 0.11-1.12-0.02-2.13-0.56-1.05-0.36m82.54-2.15-0.82-0.29-1.38-0.52-0.3-0.11-0.43-0.18-0.34-0.17-0.02-0.02 0.08-0.3 0.07-0.19 0.23-0.64 0.14-0.35 0.38-0.93 0.2-0.5 0.5-1.2 0.53-1.26 1.37-3.17 0.72-1.67 1.67-3.8 0.87-1.96 1.86-4.17 0.94-2.11 1.93-4.28 0.97-2.12 1.89-4.12 2.66-5.72 4.48-9.5 4.19 8.99 4.2 8.98-4.7 11.52-0.78 1.91-1.35 3.24-0.65 1.53-1.13 2.55-0.54 1.19-0.97 1.95-0.47 0.91-0.88 1.45-0.43 0.68-0.84 1.06-0.43 0.49-0.88 0.76-3.08 1.69-1.14 0.45-1.67 0.58-0.78 0.24-1.29 0.15-0.64 0.03-1.35-0.25-0.72-0.18m5.02-7.55 0.48-0.22 0.96-0.91 0.49-0.56 1.08-1.79 0.28-0.52 0.63-1.24 0.32-0.66 0.7-1.57 0.37-0.82 0.81-1.91 1.35-3.3 0.68-1.7 1.2-3.1 0.56-1.48 0.87-2.46 0.19-0.56 0.31-0.95 0.15-0.45 0.19-0.69 0.09-0.32 0.07-0.41-0.04-0.25h-0.05l-0.2 0.23-0.12 0.14-0.33 0.51-0.36 0.56-1.04 1.82-0.56 1.01-1.33 2.52-2.18 4.31-0.51 1.04-0.93 1.84-0.46 0.88-0.82 1.56-0.41 0.74-0.74 1.28-0.36 0.61-0.67 1.04-0.65 0.99-1.16 1.34-1.65 1.28-0.56 0.29-0.77 0.48-0.33 0.22-0.34 0.38-0.11 0.19 0.07 0.33 0.54 0.5 0.44 0.27 0.55 0.34 0.26 0.14 0.45 0.05 0.24-0.01 0.69-0.26 0.4-0.17m-30.42-3.67-4.79-2.06 4.19-1.88 1.15-0.52 1.87-0.73 0.4-0.14 0.57-0.17 0.42-0.05 0.07 0.09 0.24 0.39 0.13 0.23 0.34 0.63 0.35 0.67 0.82 1.67 0.4 0.83 0.67 1.47 0.14 0.32 0.19 0.5 0.13 0.42v0.25l-0.45 0.2-0.3 0.05-1.06-0.18-0.61-0.14-1.67-0.57-0.91-0.33m-24.4-24.99-1.41-2.92-3.11-6.45-1.57-3.27-3.16-6.55-0.77-1.61-1.5-3.1-0.73-1.52-1.38-2.86-0.66-1.39-1.22-2.52-1.58-3.3-6.82-14.25-3.6-0.04-0.24-0.01h-0.81-0.45-1.17l-0.62-0.01-1.48 0.01h-0.78-1.73-1.79l-4.13 0.02-6.56 0.03-2.27 0.01-4.13-0.05-1.97-0.04-3.28-0.13-0.75-0.04-1.29-0.09-0.61-0.05-0.96-0.1-0.44-0.06-0.6-0.11-0.44-0.19-0.15-0.24-0.03-0.55 0.03-0.29 0.31-0.65 0.2-0.33 0.67-0.75 0.38-0.39 1.02-0.86 0.55-0.44 1.38-0.96 0.73-0.49 1.74-1.07 0.92-0.55 2.1-1.18 3.56-1.9 1.44-0.75 2.55-1.36 1.2-0.65 1.9-1.09 0.85-0.49 1.06-0.68 0.2-0.14 0.2-0.19v-0.12h-0.08l-0.36 0.09-0.21 0.05-0.6 0.2-0.66 0.21-1.93 0.72-1.04 0.39-2.5 0.99-4.12 1.7-1.1 0.47-1.98 0.83-0.96 0.4-1.71 0.71-1.64 0.7-2.55 1.1-1.17 0.51-1.71 0.83-0.77 0.39-1.02 0.68-0.44 0.32-0.5 0.64-0.19 0.32-0.12 0.71-0.03 0.38 0.11 0.9 0.24 1.69 0.1 0.83 0.06 1.47v0.71l-0.15 1.3-1.33 3.73-1.87 3.5-2.09-4.83-0.61-1.43-0.81-2.57-0.33-1.24-0.23-2.26-0.05-1.1 0.33-2.07 1.13-3.02 0.47-0.91 0.89-1.29 0.3-0.33 0.94-0.68 0.54-0.37 1.62-0.86 0.46-0.23 1.09-0.53 0.58-0.27 1.35-0.61 0.71-0.32 1.66-0.73 0.86-0.37 1.98-0.85 1.04-0.45 2.35-0.99 1.22-0.52 2.74-1.15 1.43-0.6 3.18-1.33 5.28-2.22 4.08-1.7 1.28-0.53 2.35-0.98 1.14-0.47 2.08-0.86 1.01-0.41 1.83-0.74 1.78-0.72 2.9-1.12 1.36-0.52 2.2-0.77 1.03-0.34 1.66-0.47 0.78-0.21 1.3-0.22 3.34-0.05 0.97 0.09 1.54 0.08 0.73 0.06 1.25 0.4 0.62 0.28 1.24 1.21 0.32 0.37 0.69 0.99 0.36 0.54 0.78 1.36 0.4 0.73 0.91 1.8 0.47 0.96 1.07 2.29 0.56 1.22 1.26 2.85 0.66 1.5 1.49 3.48 0.78 1.82 1.75 4.16 0.92 2.17 2.05 4.91 1.06 2.55 2.39 5.71 3.98 9.55 0.65 1.55 1.18 2.81 0.56 1.36 1.03 2.47 0.49 1.19 0.89 2.13 0.42 1.03 0.75 1.84 0.36 0.89 0.62 1.57 0.3 0.75 0.5 1.32 0.48 1.27 0.64 1.93 0.28 0.88 0.29 1.3 0.1 0.59v0.9l-0.77 2.22-0.44 0.87-1.1 1.6-0.27 0.36-0.51 0.57-0.66 0.56-0.18 0.11-0.35 0.44-0.16 0.25-0.27 0.65-0.4 2.37v0.82l-0.33 1.91-0.78 2.35-0.25 0.47-0.28 0.63-0.09 0.27 0.08 0.27 0.09 0.1 0.51-0.01 1.29-0.28 0.5-0.12 0.77-0.07h0.36l0.58 0.21 0.27 0.15 0.47 0.56 0.7 1.27 0.32 0.72 0.42 1.21 0.08 0.27 0.08 0.39-0.03 0.33-0.04 0.04-0.61 0.32-0.38 0.19-1.18 0.56-0.64 0.31-1.59 0.73-2.66 1.21-6.79 3.05-10.27-21.24m111.87 5.01-3.81-8.25-0.18-15-0.02-1.87-0.11-3.52-0.06-1.72-0.2-3.25-0.23-3.18-0.74-5.63-0.42-2.71-1.15-4.83-2.21-6.53-0.29-0.68-0.37-1.16-0.15-0.56-0.11-1.04-0.02-0.52 0.15-1.09 0.5-1.86 0.34-1.02 0.34-2.04 0.12-1.01-0.07-2-0.09-1-0.48-1.94-0.29-0.96-0.88-1.86-0.48-0.91-1.25-1.74-0.67-0.85-1.62-1.6-0.85-0.78-1.96-1.42-3.33-1.92-1-0.49-2.12-1.27-1.07-0.67-2.17-1.57-6.34-5.56-6.31-6.43 0.68-6.03 0.12-1.09 0.23-1.79 0.12-0.84 0.25-1.33 0.14-0.61 0.3-0.9 0.16-0.39 0.4-0.5 0.21-0.2 0.52-0.13 0.28-0.02 0.68 0.2 0.36 0.14 0.88 0.49 1.59 1.04 0.71 0.5 1.76 1.43 0.92 0.78 2.08 1.9 1.07 1 2.28 2.24 1.15 1.15 2.35 2.43 2.34 2.47 4.32 4.93 1.01 1.19 1.77 2.21 2.14 2.92 1.26 1.87 2.53 4.25 1.25 2.18 2.36 4.55 1.14 2.26 1.97 4.41 2.27 5.98 0.49 1.51 1.03 3.05 0.24 0.71 0.42 1.21 0.48 1.33 0.22 0.57 0.45 1.65 0.22 0.9 0.45 2.2 0.22 1.16 0.43 2.59 0.21 1.34 0.38 2.84 0.38 2.87 0.54 5.85 0.12 1.42 0.15 2.68 0.09 3.62 0.01 1.56-0.17 3.41-0.1 1.74-0.34 3.62-0.19 1.81-0.48 3.61-0.25 1.79-0.59 3.38-0.3 1.64-0.64 2.94-0.32 1.39-0.67 2.28-0.33 1.04-0.65 1.4-0.16 0.29-0.3 0.37-0.44 0.23h-0.11l-0.5-0.65-0.28-0.42-0.79-1.35-0.41-0.75-0.97-1.88-0.49-0.98m-209.12-3.17-0.37-1.63-0.55-3.17-0.24-1.62-0.33-3.57-0.07-0.94-0.1-2.06-0.04-1.06-0.06-2.34-0.03-1.21-0.02-2.69 0.01-4.51 0.01-1.81 0.04-3.13 0.02-1.49 0.07-2.58 0.04-1.24 0.11-2.18 0.07-1.05 0.17-1.9 0.2-1.86 0.62-3.44 0.18-0.88 0.44-1.86 0.78-3.06 0.83-3.12 2.14-6.2 1.14-3.08 2.73-6.07 1.43-3.01 3.26-5.85 1.69-2.9 3.75-5.57 1.92-2.75 4.18-5.21 2.14-2.56 4.56-4.79 2.32-2.33 4.89-4.28 7.64-5.78 0.84-0.57 2.06-1.28 1.08-0.65 2.39-1.36 2.44-1.38 5.11-2.62 1.23-0.62 2.29-1.08 1.11-0.52 1.89-0.81 0.89-0.37 1.31-0.45 1.13-0.16 0.11 0.05 0.13 0.67 0.05 0.41-0.01 1.29-0.02 0.7-0.13 1.72-0.33 2.89-1.04 7.38-6.8 3.85-3.54 2-6.76 4.71-3.32 2.46-6.14 5.46-2.97 2.8-5.31 6.02-1.27 1.53-2.34 3.13-3.2 4.78-1.1 1.79-2.45 3.8-0.58 0.9-1.05 1.58-1.25 1.83-0.71 0.99-1.03 2.4-0.21 0.6-0.29 1.18-0.18 1.61v0.93l-0.43 2.49-1.04 3.49-0.31 0.75-0.61 1.81-0.29 0.95-0.56 2.17-0.54 2.24-0.89 5.2-0.41 2.66-0.56 5.58-0.36 8.11v1.16l-0.02 1.97-0.01 0.93-0.06 1.61-0.09 1.55-0.41 2.54-0.26 1.26-0.94 2.72-0.28 0.74-0.69 1.68-1.26 2.95-0.55 1.28-1.08 2.39-0.52 1.15-0.93 1.97-0.44 0.92-0.69 1.33-0.64 1.06-0.11 0.11-0.36-0.45-0.19-0.32-0.48-1.2-0.25-0.68-0.53-1.78-0.27-0.95m122.06-19.97v-0.06l-0.14-0.47-0.1-0.28-0.32-0.87-0.18-0.48-0.47-1.22-0.26-0.65-0.61-1.53-0.64-1.59-1.61-3.9-2.75-6.52-0.97-2.29-1.73-4.27-0.82-2.06-1.32-3.52-0.29-0.82-0.5-1.42-0.22-0.68-0.34-1.1-0.15-0.5-0.16-0.73-0.04-0.62 0.15-0.38-0.18-0.84-0.84-0.97-0.2-0.1-0.46-0.48-0.25-0.27-0.51-0.73-1.42-2.69-0.35-0.85-0.34-1.43-0.05-0.38 0.05-0.86 0.04-0.47 0.26-1.12 0.15-0.61 0.5-1.53 0.29-0.82 0.77-2.07 0.43-1.11 1.09-2.73 2.03-5.01 0.46-1.14 0.84-2.07 0.41-1 0.74-1.81 0.72-1.75 1.19-2.83 0.56-1.31 0.94-2.06 0.44-0.95 0.77-1.46 0.37-0.66 0.69-1.01 0.35-0.46 0.7-0.71 2.56-1.81 0.79-0.48 1.4-0.76 0.7-0.34 1.49-0.37 0.8-0.13 1.98 0.11 0.54 0.07 1.25 0.24 0.65 0.14 1.5 0.4 0.79 0.23 1.8 0.57 0.95 0.32 2.16 0.76 1.12 0.41 2.56 0.97 1.34 0.51 3.01 1.18 1.56 0.63 3.51 1.41 1.82 0.74 4.05 1.66 2.1 0.86 4.65 1.91 7.7 3.18 2.34 0.97 4.41 1.89 2.12 0.92 3.68 1.66 0.85 0.4 1.5 0.7 0.72 0.35 1.17 0.58 0.54 0.28 0.8 0.44 0.72 0.47 0.63 0.56 1.16 1.45 0.55 0.76 0.93 1.69 0.42 0.86 0.59 1.71 0.37 2.35v0.35l-0.13 0.95-0.09 0.51-0.29 1.24-0.33 1.3-1.04 3.19-0.57 1.66-1.39 3.51-2.27 5.06-2.22 4.5-1.87-4.25-1.88-4.25h-18.96-2.61l-4.75-0.07-1.13-0.02-2.09-0.05-1.01-0.04-1.8-0.07-0.86-0.04-1.46-0.08-0.68-0.05-1.07-0.1-0.49-0.05-0.62-0.1-0.39-0.17v-0.12l0.47-0.59 0.31-0.35 0.98-0.95 0.55-0.52 1.36-1.2 2.34-1.93 0.82-0.67 1.47-1.24 0.7-0.6 1.12-1.02 0.51-0.48 0.65-0.69 0.3-0.55-0.07-0.07-0.62 0.23-0.38 0.17-1.13 0.62-0.62 0.36-1.49 0.92-0.77 0.49-1.7 1.12-1.72 1.15-3.42 2.46-0.81 0.59-1.41 1.11-1.69 1.43-0.76 0.7-1.18 1.63-0.25 0.4-0.34 0.73-0.22 0.91v0.3l-0.38 1.29-0.24 0.74-0.76 1.97-0.42 1.05-1.03 2.39-0.54 1.22-1.17 2.55-0.59 1.27-1.19 2.43-0.59 1.18-1.08 2.06-0.52 0.96-0.85 1.42-0.2 0.31-0.32 0.44-0.37 0.37-0.33 0.21-0.31 0.51 0.12 0.7 0.1 0.09-0.03 0.55-0.04 0.33-0.27 0.94-0.17 0.5-0.48 1.19-0.9 1.95-0.6 1.18-0.95 1.71-0.43 0.74-0.64 0.85-0.28 0.32-0.34 0.01-0.13-0.09m-4.13-55.71 1.09-2.18 2.12-4.03 1.03-1.93 1.85-3.25 0.43-0.75 0.79-1.29 0.37-0.6 0.64-0.97 0.3-0.44 0.47-0.61 0.49-0.45 0.81-0.31 1.85-0.25 0.99-0.06 2.47 0.3 0.67 0.11 1.52 0.34 0.8 0.18 1.8 0.49 0.93 0.27 2.12 0.65 3.57 1.17 1.44 0.49 2.73 0.86 1.31 0.4 2.3 0.66 1.07 0.29 1.6 0.38 0.34 0.07 0.52 0.08 0.49 0.02 0.12-0.02-0.09-0.18-0.1-0.1-0.49-0.32-0.29-0.17-0.84-0.44-0.46-0.24-1.13-0.54-1.2-0.56-3.05-1.33-1.59-0.68-3.53-1.45-1.78-0.73-3.57-1.39-1.75-0.67-3.19-1.17-0.76-0.27-1.36-0.46-0.65-0.22-1.12-0.34-0.52-0.16-0.82-0.2-0.84-0.13h-0.69l-1.54 0.51-1.82 1.24-0.08 0.1-0.31 0.54-0.17 0.33-0.47 0.94-0.25 0.52-0.59 1.29-0.32 0.69-0.7 1.57-0.73 1.63-1.66 3.87-0.86 2-1.77 4.23-0.88 2.11-1.68 4.12-0.81 2-1.39 3.52-0.32 0.82-0.55 1.45-0.26 0.69-0.41 1.13-0.19 0.53-0.24 0.76-0.15 0.67v0.27l0.09 0.3 0.06 0.1 0.23-0.08 0.14-0.1 0.4-0.51 0.23-0.32 0.61-1 0.33-0.56 0.84-1.53 0.46-0.83 1.1-2.11 0.59-1.14 1.4-2.74 0.74-1.46m-18.78-7.69-0.79-1.96-1.79-3.78-0.43-0.86-0.78-1.43-0.96-1.49-0.53-0.68-1.64-1.31-0.88-0.62-2.09-1.08-1.06-0.5-2.19-0.7-3.05-0.45h-0.6l-0.78-0.1-0.34-0.08-0.33-0.43-0.12-0.28 0.01-0.99 0.31-2.37 0.05-0.29 0.14-0.86 0.09-0.47 0.21-1.17 0.24-1.25 0.62-3.22 0.33-1.7 0.77-3.82 1.22-5.97 0.41-1.99 0.8-3.85 0.38-1.87 0.69-3.32 0.16-0.78 0.29-1.4 0.13-0.67 0.23-1.13 0.11-0.53 0.17-0.82 0.17-0.84 0.14-0.75 0.83-1.93 1.6-2.62 0.5-0.64 0.87-0.84 0.47-0.36 1.39-0.39 0.41-0.07 1.05-0.1 0.57-0.03 1.44-0.03 0.78-0.01 1.93 0.02 3.53 0.06 1.21 0.02 2.13 0.02h1.01l1.76-0.02 0.83-0.02 1.39-0.06 0.65-0.04 1.04-0.11 0.48-0.06 0.7-0.16 0.3-0.08 0.37-0.2 0.15-0.11 0.05-0.25-0.27-0.43-0.04-0.03-0.27-0.08-0.18-0.05-0.53-0.1-0.59-0.1-1.79-0.26-0.98-0.13-2.38-0.29-1.23-0.15-2.69-0.3-2.71-0.3-5.21-0.48-1.2-0.1-2-0.15-2.16-0.09h-0.77l-1.29 0.11-0.6 0.1-1.02 0.46-0.48 0.3-0.8 1.04-0.39 0.61-0.67 1.84-0.16 0.52-0.31 1.22-0.16 0.65-0.3 1.5-0.15 0.79-0.3 1.8-0.15 0.94-0.31 2.13-0.16 1.12-0.32 2.49-0.17 1.29-0.34 2.88-0.18 1.49-0.38 3.29-0.62 5.43-0.27 2.34-0.75 5.38-0.19 1.3-0.37 2.38-0.52 2.94-0.25 1.29-0.45 1.85-0.23 0.83-0.57 1.15-0.31 0.52-0.85 0.76-1.8 1.03-0.92 0.43-1.59 0.54-0.35 0.1-0.53 0.09-0.45-0.07-0.04-0.03-0.01-0.47v-0.29l0.05-0.94 0.04-0.52 0.11-1.36 0.07-0.73 0.17-1.72 0.09-0.9 0.22-2.04 0.12-1.05 0.27-2.3 0.95-7.58 0.35-2.67 0.7-5.39 0.34-2.66 0.64-4.93 0.16-1.18 0.28-2.18 0.13-1.05 0.24-1.86 0.12-0.89 0.19-1.48 0.22-1.72 0.16-1.32 0.45-2.38 0.24-1.14 0.6-2.04 0.32-0.98 0.78-1.72 0.41-0.81 0.95-1.42 0.5-0.66 1.16-1.13 0.6-0.52 1.36-0.86 0.71-0.39 1.59-0.6 2.64-0.63 0.26-0.04 1.19 0.01 0.7 0.03 1.98 0.13 1.08 0.08 2.65 0.24 1.4 0.13 3.21 0.33 1.66 0.17 3.65 0.4 1.86 0.21 3.97 0.47 4.02 0.47 8.51 1.07 4.26 0.54 8.28 1.11 2.01 0.28 3.82 0.54 1.87 0.26 3.44 0.51 1.66 0.25 2.95 0.47 1.4 0.23 2.34 0.4 1.08 0.2 1.6 0.33 1.47 0.4 0.85 0.35 1.45 0.88 0.69 0.47 1.15 1.15 0.53 0.61 0.84 1.48 0.39 0.78 0.56 1.85 0.24 0.98 0.29 2.28 0.1 1.2 0.03 2.77-0.02 1.44-0.23 3.3-0.6 5.6-0.18 1.37-0.32 2.51-0.16 1.21-0.29 2.21-0.14 1.07-0.26 1.94-0.13 0.93-0.23 1.67-0.23 1.6-0.39 2.51-0.19 1.15-0.35 1.69-0.17 0.76-0.32 1.02-0.17 0.44-0.33 0.5-0.18 0.2-0.38 0.11-0.66-0.09-0.12-0.04-0.51-0.19-0.3-0.11-0.82-0.32-0.44-0.17-1.09-0.43-0.57-0.23-1.32-0.52-1.36-0.55-3.24-1.31-5.27-2.16-1.89-0.78-3.32-1.29-1.59-0.61-2.79-0.96-1.34-0.43-2.36-0.63-1.13-0.27-2.01-0.32-0.98-0.11-1.77-0.01-0.86 0.04-1.61 0.28-0.8 0.18-1.56 0.57-2.37 1.17-1.12 0.62-1.93 1.71-0.48 0.49-0.94 1.22-0.47 0.65-0.97 1.6-0.5 0.86-1.06 2.07-0.55 1.11-1.21 2.64-0.62 1.4-1.4 3.31-2.37 5.79-0.57 1.41-1.09 2.57-0.53 1.23-0.94 2.03-0.43 0.93-0.68 1.27-0.15 0.26-0.23 0.34-0.22 0.21h-0.1l-0.41-0.56-0.23-0.37-0.62-1.17-0.32-0.64-0.74-1.63-0.38-0.85m14.38-26.03 1.87-2.31 3.27-4.21 0.77-1.01 1.38-1.86 0.66-0.9 1.15-1.62 0.54-0.77 0.89-1.35 0.4-0.63 0.6-1.02 0.26-0.47 0.28-0.66 0.04-0.54-0.07-0.07-0.31 0.14-0.19 0.11-0.54 0.45-0.29 0.26-0.72 0.73-0.38 0.39-0.87 0.96-0.9 1.01-2.12 2.53-1.09 1.33-2.28 2.89-1.14 1.46-2.18 2.92-1.06 1.43-1.81 2.6-0.42 0.61-0.72 1.1-0.34 0.53-0.54 0.91-0.24 0.42-0.32 0.67-0.2 0.67v0.31l0.24 0.14 0.09-0.02 0.28-0.18 0.16-0.12 0.43-0.42 0.24-0.24 0.61-0.68 0.34-0.38 0.82-0.97 0.44-0.52 1.07-1.29 0.56-0.69z" fill="#fefefe"/>
</svg>
